<?xml version="1.0" encoding="UTF-8" standalone="no"?>
<svg
   id="uuid-b0ce6cb8-b465-4ffa-8df5-bf50c2fa6216"
   data-name="Layer 1"
   viewBox="0 0 320.01001 314.436"
   version="1.1"
   sodipodi:docname="land.svg"
   width="320.01001"
   height="314.436"
   inkscape:version="1.1.2 (0a00cf5339, 2022-02-04)"
   xmlns:inkscape="http://www.inkscape.org/namespaces/inkscape"
   xmlns:sodipodi="http://sodipodi.sourceforge.net/DTD/sodipodi-0.dtd"
   xmlns="http://www.w3.org/2000/svg"
   xmlns:svg="http://www.w3.org/2000/svg">
  <sodipodi:namedview
     id="namedview445"
     pagecolor="#ffffff"
     bordercolor="#666666"
     borderopacity="1.0"
     inkscape:pageshadow="2"
     inkscape:pageopacity="0.0"
     inkscape:pagecheckerboard="0"
     showgrid="false"
     fit-margin-top="0"
     fit-margin-left="0"
     fit-margin-right="0"
     fit-margin-bottom="0"
     inkscape:zoom="0.391"
     inkscape:cx="-530.69054"
     inkscape:cy="852.94118"
     inkscape:window-width="1920"
     inkscape:window-height="1016"
     inkscape:window-x="0"
     inkscape:window-y="0"
     inkscape:window-maximized="1"
     inkscape:current-layer="uuid-b0ce6cb8-b465-4ffa-8df5-bf50c2fa6216" />
  <defs
     id="defs4">
    <style
       id="style2">
      .uuid-a0eaf5f6-cabc-4975-b0d8-e888e65bf3c0 {
        fill: #1ca35c;
      }

      .uuid-a0eaf5f6-cabc-4975-b0d8-e888e65bf3c0, .uuid-2146384d-0b09-43da-8e6e-80d934d6d1fd, .uuid-920593d4-1721-40ea-8bf9-1d8df658ac26, .uuid-f599ff54-aa5f-4aaa-b646-8675a15c44ac, .uuid-1486ff97-3d2e-4144-92bb-3c9eeea2e03f, .uuid-27488adf-0585-4392-8759-088aad7410b0, .uuid-462f830c-b78a-4972-ace1-807387b017a0, .uuid-e6cce17e-3c04-4715-b0b8-12b50334c5df, .uuid-3a4fd813-b501-4b9e-852a-00f0f21bd0ef, .uuid-fe70f3d0-a5f7-4cba-9cfe-8e2a16fe1bc2, .uuid-74cd0678-082c-46bc-a0bf-83b069182484, .uuid-5741f930-e638-4455-aea2-657ec14b459c, .uuid-d7db886f-e022-40c8-bc39-bef0a8f108b5 {
        stroke-width: 0px;
      }

      .uuid-2146384d-0b09-43da-8e6e-80d934d6d1fd {
        fill: #17ad5b;
      }

      .uuid-920593d4-1721-40ea-8bf9-1d8df658ac26 {
        fill: #f2b27e;
      }

      .uuid-f599ff54-aa5f-4aaa-b646-8675a15c44ac {
        fill: #06773f;
      }

      .uuid-1486ff97-3d2e-4144-92bb-3c9eeea2e03f {
        fill: #e89e67;
      }

      .uuid-ee63806f-43d9-4642-ae54-e8bcfb15cba9 {
        stroke: #06773f;
        stroke-miterlimit: 10;
        stroke-width: 13.94px;
      }

      .uuid-ee63806f-43d9-4642-ae54-e8bcfb15cba9, .uuid-27488adf-0585-4392-8759-088aad7410b0 {
        fill: none;
      }

      .uuid-462f830c-b78a-4972-ace1-807387b017a0 {
        fill: #f7931e;
      }

      .uuid-e6cce17e-3c04-4715-b0b8-12b50334c5df {
        fill: #b6e56c;
      }

      .uuid-3a4fd813-b501-4b9e-852a-00f0f21bd0ef {
        fill: #5ae4f2;
      }

      .uuid-fe70f3d0-a5f7-4cba-9cfe-8e2a16fe1bc2 {
        fill: #e07b28;
      }

      .uuid-74cd0678-082c-46bc-a0bf-83b069182484 {
        fill: #f4b98c;
      }

      .uuid-5741f930-e638-4455-aea2-657ec14b459c {
        fill: #36aad8;
      }

      .uuid-d7db886f-e022-40c8-bc39-bef0a8f108b5 {
        fill: #88c12f;
      }
    </style>
  </defs>
  <g
     id="g170"
     transform="translate(-1530.06,-145.77399)">
    <path
       class="uuid-462f830c-b78a-4972-ace1-807387b017a0"
       d="m 1657.52,211.21 c 3.08,-1.27 5.43,-1.65 8.18,-1.95 2.66,-0.24 5.32,-0.16 7.95,0.15 3.19,0.41 6.28,1.26 9.3,2.29 1.95,-2.52 4.07,-4.92 6.5,-7.03 2.03,-1.7 4.2,-3.24 6.56,-4.5 2.46,-1.27 4.63,-2.24 7.91,-2.87 1.7,-0.33 3.48,0.53 4.24,2.18 0.89,1.94 0.05,4.23 -1.89,5.12 l -0.75,0.34 c -1.17,0.54 -3.13,1.71 -4.52,2.91 -1.5,1.24 -2.85,2.68 -4.08,4.21 -2.41,3.13 -4.3,6.67 -5.68,10.47 -0.17,0.46 -0.41,0.94 -0.7,1.36 -1.89,2.73 -5.63,3.42 -8.36,1.53 L 1682,225.3 v 0 c -3.24,-2.42 -6.76,-4.34 -10.5,-5.62 -1.87,-0.6 -3.79,-1.06 -5.72,-1.27 -1.83,-0.24 -4.1,-0.14 -5.38,0.06 l -0.82,0.13 c -1.72,0.26 -3.45,-0.67 -4.14,-2.34 -0.81,-1.97 0.12,-4.23 2.09,-5.04 z"
       id="path146" />
    <path
       class="uuid-462f830c-b78a-4972-ace1-807387b017a0"
       d="m 1627.56,177.96 c 2.65,0.2 4.35,0.74 6.36,1.48 1.91,0.75 3.71,1.71 5.41,2.82 1.82,1.22 3.48,2.63 5.04,4.14 2,-0.83 4.06,-1.52 6.19,-1.99 1.99,-0.41 4.03,-0.65 6.08,-0.64 2.14,0.05 3.93,0.17 6.47,0.96 1.38,0.43 2.41,1.69 2.48,3.22 0.08,1.94 -1.43,3.58 -3.37,3.65 l -1.04,0.04 c -0.79,0.03 -2.48,0.16 -3.73,0.51 -1.35,0.34 -2.67,0.85 -3.94,1.46 -2.53,1.28 -4.86,2.98 -6.95,5.02 -0.39,0.38 -0.87,0.73 -1.39,0.98 -2.68,1.32 -5.92,0.21 -7.24,-2.46 l -0.09,-0.18 -0.02,-0.03 c -1.19,-2.66 -2.73,-5.1 -4.61,-7.21 -0.95,-1.03 -1.99,-1.99 -3.12,-2.79 -1.03,-0.79 -2.55,-1.52 -3.27,-1.84 l -0.96,-0.43 c -1.32,-0.59 -2.19,-1.96 -2.07,-3.48 0.15,-1.94 1.84,-3.38 3.78,-3.24 z"
       id="path148" />
    <path
       class="uuid-462f830c-b78a-4972-ace1-807387b017a0"
       d="m 1722.37,168.43 -0.74,0.46 c -0.51,0.32 -1.62,1.04 -2.33,1.75 -0.79,0.74 -1.49,1.58 -2.12,2.47 -1.24,1.82 -2.18,3.86 -2.83,6.03 -0.13,0.43 -0.34,0.86 -0.61,1.25 -1.38,1.95 -4.07,2.41 -6.01,1.03 l -0.13,-0.09 -0.02,-0.02 c -1.8,-1.37 -3.75,-2.47 -5.82,-3.21 -1.03,-0.35 -2.1,-0.62 -3.16,-0.75 -0.99,-0.16 -2.31,-0.09 -2.91,-0.05 l -0.88,0.06 c -1.13,0.08 -2.25,-0.54 -2.75,-1.64 -0.64,-1.41 -0.02,-3.07 1.39,-3.72 1.91,-0.87 3.27,-1.14 4.93,-1.39 1.6,-0.21 3.19,-0.23 4.78,-0.11 1.68,0.15 3.33,0.47 4.95,0.9 1.05,-1.29 2.19,-2.52 3.46,-3.62 1.22,-1.03 2.52,-1.96 3.94,-2.73 1.49,-0.78 2.76,-1.36 4.82,-1.78 1.12,-0.22 2.31,0.24 2.94,1.27 0.82,1.32 0.42,3.05 -0.9,3.87 z"
       id="path150" />
    <path
       class="uuid-462f830c-b78a-4972-ace1-807387b017a0"
       d="m 1686.28,156.36 -0.87,0.05 c -0.6,0.04 -1.92,0.15 -2.88,0.43 -1.04,0.27 -2.06,0.68 -3.04,1.17 -1.96,1.02 -3.75,2.36 -5.35,3.97 -0.32,0.32 -0.71,0.6 -1.13,0.81 -2.13,1.06 -4.72,0.19 -5.78,-1.95 l -0.07,-0.14 v -0.03 c -0.95,-2.06 -2.15,-3.95 -3.62,-5.59 -0.74,-0.8 -1.55,-1.54 -2.43,-2.16 -0.8,-0.61 -1.99,-1.17 -2.54,-1.42 l -0.8,-0.36 c -1.04,-0.47 -1.72,-1.55 -1.64,-2.75 0.11,-1.55 1.44,-2.71 2.99,-2.61 2.09,0.14 3.42,0.55 5,1.12 1.51,0.57 2.92,1.31 4.26,2.17 1.41,0.93 2.71,1.99 3.93,3.14 1.54,-0.64 3.12,-1.18 4.76,-1.55 1.56,-0.33 3.15,-0.53 4.76,-0.53 1.68,0.03 3.08,0.12 5.08,0.72 1.09,0.33 1.92,1.31 1.99,2.51 0.1,1.55 -1.08,2.88 -2.63,2.98 z"
       id="path152" />
    <path
       class="uuid-e6cce17e-3c04-4715-b0b8-12b50334c5df"
       d="m 1560.74,394.14 c 24.94,-28.17 67.25,-64.86 135.28,-94.02 -39.8,-17.06 -88.33,-31.52 -147.22,-40.12 -7.49,-1.09 -14.62,3.96 -16.02,11.39 -1.76,9.34 -2.72,18.95 -2.72,28.8 0,35.15 11.47,67.55 30.68,93.95 z"
       id="path154" />
    <g
       id="g160">
      <path
         class="uuid-f599ff54-aa5f-4aaa-b646-8675a15c44ac"
         d="m 1833.68,261.81 c -8.99,-7.14 -18.51,-16.36 -22.72,-22.73 4.09,-0.02 7.18,-0.39 8.64,-0.73 1.88,-0.43 2.44,-2.78 0.98,-4.1 -12.7,-11.16 -20.14,-27.32 -23.47,-36.17 -0.39,-1.03 -1.3,-1.54 -2.21,-1.54 -0.91,0 -1.82,0.51 -2.2,1.54 -3.33,8.85 -10.77,25.01 -23.47,36.17 -1.45,1.32 -0.9,3.68 0.98,4.1 1.45,0.34 4.55,0.71 8.64,0.73 -4.75,7.19 -16.28,18.03 -26.17,25.38 -1.44,1.07 -1.11,3.3 0.58,3.88 6.16,2.14 16.39,0 16.39,0 -1.17,2.21 -3.13,5.08 -5.56,8.23 20.73,-5.69 43.06,-10.67 67.28,-14.63 0.78,-0.13 1.55,-0.14 2.31,-0.14 z"
         id="path156" />
      <path
         class="uuid-d7db886f-e022-40c8-bc39-bef0a8f108b5"
         d="m 1847.73,273.67 c -1.2,-6.91 -7.25,-11.83 -14.05,-11.85 -0.77,0 -1.53,0.01 -2.31,0.14 -24.22,3.95 -46.55,8.93 -67.28,14.63 -25.08,6.89 -47.77,14.85 -68.06,23.55 -68.02,29.16 -110.33,65.85 -135.28,94.02 29.09,39.97 76.1,66.05 129.32,66.05 88.37,0 160,-71.63 160,-160 0,-9.06 -0.83,-17.91 -2.33,-26.53 z"
         id="path158" />
    </g>
    <path
       class="uuid-a0eaf5f6-cabc-4975-b0d8-e888e65bf3c0"
       d="m 1831.53,346.9 c -18.79,-14.42 -36.22,-35.37 -41.98,-46.25 0,0 15.65,3.28 25.05,0 2.57,-0.9 3.07,-4.28 0.88,-5.91 -15.1,-11.23 -32.71,-27.79 -39.97,-38.78 6.24,-0.03 10.97,-0.59 13.19,-1.11 2.87,-0.65 3.72,-4.24 1.5,-6.27 -19.39,-17.04 -30.75,-41.71 -35.84,-55.22 -0.59,-1.57 -1.98,-2.35 -3.37,-2.35 -1.39,0 -2.78,0.78 -3.37,2.35 -5.09,13.51 -16.45,38.19 -35.84,55.22 -2.22,2.02 -1.37,5.61 1.5,6.27 2.22,0.52 -3.45,10.62 2.78,10.65 -7.25,10.97 -14.44,17.98 -29.51,29.19 -2.19,1.63 -1.73,5.07 0.85,5.97 9.4,3.26 25.01,0 25.01,0 -5.75,10.88 -23.19,31.83 -41.98,46.25 -3.82,2.93 -2.1,8.94 2.69,9.4 17.9,1.72 32.4,-2.45 40.28,-5.54 3.8,-1.49 7.99,-0.74 11.04,1.98 2.77,2.47 6.96,5.23 12.26,7.2 l -3.16,39.37 c -0.28,3.54 2.51,6.58 6.07,6.58 h 22.71 c 3.55,0 6.35,-3.03 6.07,-6.58 l -3.16,-39.37 c 5.3,-1.97 9.49,-4.73 12.27,-7.2 3.04,-2.71 7.24,-3.47 11.04,-1.98 7.88,3.09 22.38,7.27 40.28,5.54 4.79,-0.46 6.51,-6.47 2.69,-9.4 z"
       id="path162" />
    <path
       class="uuid-f599ff54-aa5f-4aaa-b646-8675a15c44ac"
       d="m 1785.47,384.71 c -18.79,-14.42 -36.22,-35.37 -41.98,-46.25 0,0 15.65,3.28 25.05,0 2.57,-0.9 3.07,-4.28 0.88,-5.91 -15.1,-11.23 -32.71,-27.79 -39.97,-38.78 6.24,-0.03 10.97,-0.59 13.19,-1.11 2.87,-0.65 3.72,-4.24 1.5,-6.27 -19.39,-17.04 -30.75,-41.71 -35.84,-55.22 -0.59,-1.57 -1.98,-2.35 -3.37,-2.35 -1.39,0 -2.78,0.78 -3.37,2.35 -5.09,13.51 -16.45,38.19 -35.84,55.22 -2.22,2.02 -1.37,5.61 1.5,6.27 2.22,0.52 6.95,1.08 13.19,1.11 -7.26,10.99 -24.87,27.55 -39.97,38.78 -2.19,1.63 -1.69,5.01 0.88,5.91 9.4,3.28 25.05,0 25.05,0 -5.75,10.88 -23.19,31.83 -41.98,46.25 -3.82,2.93 -2.1,8.94 2.69,9.4 17.9,1.72 32.4,-2.45 40.28,-5.54 3.8,-1.49 7.99,-0.74 11.04,1.98 2.77,2.47 6.96,5.23 12.26,7.2 l -3.07,31.58 c -0.33,3.41 2.35,6.37 5.78,6.37 h 23.11 c 3.43,0 6.11,-2.96 5.78,-6.37 l -3.07,-31.58 c 5.3,-1.97 9.49,-4.73 12.27,-7.2 3.04,-2.71 7.24,-3.47 11.04,-1.98 7.88,3.09 22.38,7.27 40.28,5.54 4.79,-0.46 6.51,-6.47 2.69,-9.4 z"
       id="path164" />
    <path
       class="uuid-a0eaf5f6-cabc-4975-b0d8-e888e65bf3c0"
       d="m 1623.49,278.29 c -10.25,-7.87 -19.77,-19.31 -22.91,-25.24 0,0 8.54,1.79 13.67,0 1.4,-0.49 1.67,-2.34 0.48,-3.22 -8.24,-6.13 -17.85,-15.17 -21.82,-21.16 3.4,-0.02 5.99,-0.32 7.2,-0.61 1.57,-0.36 2.03,-2.32 0.82,-3.42 -10.58,-9.3 -16.78,-22.77 -19.56,-30.14 -0.32,-0.86 -1.08,-1.28 -1.84,-1.28 -0.76,0 -1.52,0.43 -1.84,1.28 -2.78,7.37 -8.98,20.84 -19.56,30.14 -1.21,1.1 -0.75,3.06 0.82,3.42 1.21,0.28 3.79,0.59 7.2,0.61 -3.96,6 -13.58,15.03 -21.82,21.16 -1.19,0.89 -0.92,2.73 0.48,3.22 5.13,1.79 13.67,0 13.67,0 -3.14,5.94 -12.66,17.37 -22.91,25.24 -2.09,1.6 -1.15,4.88 1.47,5.13 9.77,0.94 17.68,-1.34 21.99,-3.03 2.07,-0.81 4.36,-0.4 6.02,1.08 1.51,1.35 3.8,2.85 6.69,3.93 l -1.67,17.24 c -0.18,1.86 1.28,3.48 3.15,3.48 h 12.61 c 1.87,0 3.34,-1.61 3.15,-3.48 l -1.67,-17.24 c 2.89,-1.07 5.18,-2.58 6.69,-3.93 1.66,-1.48 3.95,-1.89 6.02,-1.08 4.3,1.69 12.22,3.97 21.99,3.03 2.62,-0.25 3.55,-3.53 1.47,-5.13 z"
       id="path166" />
    <path
       class="uuid-f599ff54-aa5f-4aaa-b646-8675a15c44ac"
       d="m 1655.57,303.38 c -10.25,-7.87 -19.77,-19.31 -22.91,-25.24 0,0 8.54,1.79 13.67,0 1.4,-0.49 1.67,-2.34 0.48,-3.22 -8.24,-6.13 -17.85,-15.17 -21.82,-21.16 3.4,-0.02 5.99,-0.32 7.2,-0.61 1.57,-0.36 2.03,-2.32 0.82,-3.42 -10.58,-9.3 -16.78,-22.77 -19.56,-30.14 -0.32,-0.86 -1.08,-1.28 -1.84,-1.28 -0.76,0 -1.52,0.43 -1.84,1.28 -2.78,7.37 -8.98,20.84 -19.56,30.14 -1.21,1.1 -0.75,3.06 0.82,3.42 1.21,0.28 3.79,0.59 7.2,0.61 -3.96,6 -13.58,15.03 -21.82,21.16 -1.19,0.89 -0.92,2.73 0.48,3.22 5.13,1.79 13.67,0 13.67,0 -3.14,5.94 -12.66,17.37 -22.91,25.24 -2.08,1.6 -1.15,4.88 1.47,5.13 9.77,0.94 17.68,-1.34 21.99,-3.03 2.07,-0.81 4.36,-0.4 6.02,1.08 1.51,1.35 3.8,2.85 6.69,3.93 l -1.67,17.24 c -0.18,1.86 1.28,3.48 3.15,3.48 h 12.61 c 1.87,0 3.34,-1.61 3.15,-3.48 l -1.67,-17.24 c 2.89,-1.07 5.18,-2.58 6.69,-3.93 1.66,-1.48 3.95,-1.89 6.02,-1.08 4.3,1.69 12.22,3.97 21.99,3.03 2.62,-0.25 3.55,-3.53 1.47,-5.13 z"
       id="path168" />
  </g>
  <rect
     class="uuid-27488adf-0585-4392-8759-088aad7410b0"
     width="2000"
     height="2000"
     id="rect442"
     x="-1530.0601"
     y="-145.77399" />
</svg>
