<svg width="64" height="64" viewBox="0 0 64 64" fill="none" xmlns="http://www.w3.org/2000/svg">
<g clip-path="url(#clip0_11729_24458)">
<path d="M32 0C14.3289 0 0 14.322 0 31.9956C0 49.6691 14.3289 64 32 64C49.6711 64 64 49.6691 64 31.9956C64 14.322 49.6711 0 32 0Z" fill="#D0D5E7"/>
<path d="M31.9999 53.3407C43.7818 53.3407 53.3328 43.7883 53.3328 32.0048C53.3328 20.2213 43.7818 10.6689 31.9999 10.6689C20.2181 10.6689 10.667 20.2213 10.667 32.0048C10.667 43.7883 20.2181 53.3407 31.9999 53.3407Z" fill="#7889B8"/>
<path d="M33.3522 22.3857H30.641C30.1255 22.3857 29.7166 22.8214 29.7522 23.337L30.5255 34.9208C30.5522 35.392 30.9433 35.7476 31.4144 35.7476H32.5788C33.0499 35.7476 33.4322 35.3831 33.4677 34.9208L34.241 23.337C34.2766 22.8214 33.8677 22.3857 33.3522 22.3857Z" fill="white"/>
<path d="M32.0004 41.6145C33.0264 41.6145 33.8581 40.7826 33.8581 39.7565C33.8581 38.7303 33.0264 37.8984 32.0004 37.8984C30.9743 37.8984 30.1426 38.7303 30.1426 39.7565C30.1426 40.7826 30.9743 41.6145 32.0004 41.6145Z" fill="white"/>
</g>
<defs>
<clipPath id="clip0_11729_24458">
<rect width="64" height="64" fill="white"/>
</clipPath>
</defs>
</svg>
