<svg width="259" height="20" viewBox="0 0 259 20" fill="none" xmlns="http://www.w3.org/2000/svg">
<path d="M0.121094 15.1158V4.90625H4.27691C4.57142 4.90625 4.89865 4.93897 5.22588 5.03714C5.55311 5.10259 5.84761 5.2662 6.1094 5.49526C6.37118 5.72432 6.60024 6.05155 6.76386 6.50968C6.92747 6.9678 7.02564 7.55681 7.02564 8.27672C7.02564 8.99662 6.92747 9.58563 6.76386 10.0438C6.60024 10.5019 6.37118 10.8291 6.07667 11.0909C5.81489 11.32 5.48766 11.4836 5.16043 11.5817C4.8332 11.6799 4.53869 11.7126 4.24419 11.7126C4.08057 11.7126 3.88424 11.7126 3.65517 11.7126C3.39339 11.7126 3.13161 11.6799 2.86982 11.6799C2.60804 11.6472 2.34626 11.6472 2.08447 11.6145C1.85541 11.5817 1.65907 11.5817 1.52818 11.549V15.1813H0.121094V15.1158ZM1.52818 10.4037H4.04785C4.34236 10.4037 4.60414 10.3383 4.8332 10.2074C5.06226 10.0765 5.2586 9.84742 5.38949 9.55291C5.52038 9.2584 5.58583 8.80028 5.58583 8.24399C5.58583 7.6877 5.52038 7.2623 5.38949 6.9678C5.2586 6.67329 5.06226 6.44423 4.86592 6.31334C4.63686 6.18245 4.4078 6.117 4.14602 6.117H1.52818V10.4037Z" fill="#313A5B"/>
<path d="M14.3545 15.2145C13.7001 15.2145 13.111 15.1491 12.5875 15.0182C12.0966 14.8873 11.6712 14.6582 11.3113 14.2983C10.9841 13.9383 10.7223 13.4147 10.5587 12.7276C10.395 12.0404 10.2969 11.1568 10.2969 10.0443C10.2969 8.93169 10.395 8.04817 10.5587 7.32826C10.7223 6.64108 10.9841 6.11751 11.3113 5.75756C11.6385 5.39761 12.0639 5.13582 12.5875 5.00493C13.111 4.87404 13.6673 4.80859 14.3218 4.80859C15.009 4.80859 15.598 4.87404 16.1216 5.00493C16.6451 5.13582 17.0378 5.39761 17.365 5.75756C17.6923 6.11751 17.954 6.64108 18.1177 7.32826C18.2813 8.01544 18.3794 8.93169 18.3794 10.0443C18.3794 11.1568 18.2813 12.0404 18.1177 12.7276C17.954 13.4147 17.6923 13.9383 17.365 14.2983C17.0378 14.6582 16.6124 14.8873 16.0888 15.0182C15.598 15.1491 15.009 15.2145 14.3545 15.2145ZM14.3545 13.971C14.8454 13.971 15.238 13.9056 15.598 13.8074C15.9252 13.7092 16.2197 13.5129 16.4161 13.2511C16.6124 12.9893 16.776 12.5967 16.8742 12.0731C16.9724 11.5495 17.0051 10.8951 17.0051 10.0443C17.0051 9.16075 16.9724 8.47357 16.8742 7.95C16.776 7.42643 16.6124 7.03376 16.4161 6.77197C16.2197 6.51019 15.9252 6.31385 15.598 6.21568C15.2708 6.11751 14.8454 6.08479 14.3545 6.08479C13.8964 6.08479 13.5037 6.11751 13.1765 6.21568C12.8493 6.31385 12.5548 6.47747 12.3584 6.77197C12.1294 7.03376 11.9985 7.42643 11.8676 7.95C11.7694 8.47357 11.704 9.19347 11.704 10.0443C11.704 10.8623 11.7367 11.5495 11.8349 12.0731C11.933 12.5967 12.0639 12.9893 12.293 13.2511C12.4893 13.5129 12.7838 13.7092 13.1111 13.8074C13.4383 13.9056 13.8637 13.971 14.3545 13.971Z" fill="#313A5B"/>
<path d="M23.8786 15.1158L21.3262 4.90625H22.766L24.7948 13.1524L27.1181 4.90625H28.4925L30.8158 13.1524L32.8447 4.90625H34.2845L31.7321 15.1485H30.2268L27.8053 6.86963L25.3511 15.1158H23.8786Z" fill="#313A5B"/>
<path d="M39.6187 15.1813C39.3897 15.1813 39.1279 15.1485 38.8988 15.1158C38.637 15.0831 38.408 14.9849 38.1462 14.854C37.9171 14.7231 37.7208 14.5268 37.5572 14.2323C37.3936 13.9705 37.3281 13.5778 37.3281 13.1197V7.03324C37.3281 6.64057 37.3936 6.28061 37.5245 6.01883C37.6554 5.75705 37.819 5.52799 38.0153 5.36437C38.2116 5.20076 38.4407 5.10259 38.7025 5.00442C38.9643 4.93897 39.1933 4.90625 39.4551 4.90625C40.0441 4.90625 40.6004 4.93897 41.124 4.93897C41.6148 4.93897 42.1057 4.9717 42.5311 4.9717C42.9565 5.00442 43.3819 5.00442 43.7745 5.03714V6.18245H39.8478C39.5206 6.18245 39.2261 6.28061 39.0297 6.44423C38.8334 6.60784 38.7352 6.90235 38.7352 7.2623V9.3893L43.1528 9.48746V10.5673L38.7352 10.6655V12.7598C38.7352 13.087 38.8007 13.3161 38.8988 13.4797C38.997 13.6433 39.1279 13.7415 39.3242 13.8069C39.4878 13.8723 39.6842 13.9051 39.8805 13.9051H43.8073V15.0504C43.3819 15.0831 42.9238 15.1158 42.4656 15.1158C42.0075 15.1485 41.5167 15.1485 41.0585 15.1813C40.535 15.1813 40.0769 15.1813 39.6187 15.1813Z" fill="#313A5B"/>
<path d="M47.5039 15.1158V4.90625H51.5943C51.9542 4.90625 52.2815 4.93897 52.6087 5.03714C52.9359 5.13531 53.2304 5.2662 53.4922 5.49526C53.754 5.72432 53.9503 6.01883 54.1139 6.44423C54.2776 6.83691 54.343 7.36047 54.343 8.01493C54.343 8.5385 54.2776 8.99662 54.1794 9.32385C54.0812 9.6838 53.9176 9.94559 53.754 10.1746C53.5577 10.371 53.3613 10.5346 53.165 10.6328C52.9359 10.7309 52.7396 10.8291 52.5105 10.8618L54.5393 15.1158H53.1323L51.2343 11.0582C51.1034 11.0582 50.9398 11.0582 50.7435 11.0582C50.5471 11.0582 50.3508 11.0582 50.1217 11.0582C49.8927 11.0582 49.6963 11.0582 49.4673 11.0582C49.2709 11.0582 49.0746 11.0582 48.911 11.0582V15.1813H47.5039V15.1158ZM48.911 9.94559H51.3979C51.627 9.94559 51.8233 9.91286 52.0197 9.88014C52.216 9.81469 52.3796 9.71653 52.5105 9.58563C52.6414 9.45474 52.7723 9.2584 52.8378 8.99662C52.9359 8.73484 52.9686 8.40761 52.9686 8.01493C52.9686 7.62226 52.9359 7.32775 52.8378 7.06597C52.7396 6.83691 52.6414 6.64057 52.4778 6.50968C52.3142 6.37878 52.1506 6.28061 51.987 6.24789C51.7906 6.18245 51.5943 6.18245 51.3979 6.18245H48.911V9.94559Z" fill="#313A5B"/>
<path d="M60.2984 15.1813C60.0694 15.1813 59.8076 15.1485 59.5785 15.1158C59.3167 15.0831 59.0877 14.9849 58.8259 14.854C58.5968 14.7231 58.4005 14.5268 58.2369 14.2323C58.0733 13.9705 58.0078 13.5778 58.0078 13.1197V7.03324C58.0078 6.64057 58.0733 6.28061 58.2042 6.01883C58.335 5.75705 58.4987 5.52799 58.695 5.36437C58.8913 5.20076 59.1204 5.10259 59.3822 5.00442C59.644 4.93897 59.873 4.90625 60.1348 4.90625C60.7238 4.90625 61.2801 4.93897 61.8037 4.93897C62.2945 4.93897 62.7854 4.9717 63.2108 4.9717C63.6362 5.00442 64.0616 5.00442 64.4542 5.03714V6.18245H60.5275C60.2003 6.18245 59.9057 6.28061 59.7094 6.44423C59.5131 6.60784 59.4149 6.90235 59.4149 7.2623V9.3893L63.8325 9.48746V10.5673L59.4149 10.6655V12.7598C59.4149 13.087 59.4803 13.3161 59.5785 13.4797C59.6767 13.6433 59.8076 13.7415 60.0039 13.8069C60.2003 13.8723 60.3639 13.9051 60.5602 13.9051H64.487V15.0504C64.0616 15.0831 63.6034 15.1158 63.1453 15.1158C62.6872 15.1485 62.1964 15.1485 61.7382 15.1813C61.2147 15.1813 60.7565 15.1813 60.2984 15.1813Z" fill="#313A5B"/>
<path d="M68.2168 15.1158V4.90625H72.3399C72.9943 4.90625 73.5179 5.03714 73.9433 5.2662C74.3687 5.49526 74.7287 5.82249 74.9905 6.28061C75.2522 6.70601 75.4486 7.2623 75.5795 7.88404C75.7104 8.50578 75.7758 9.22568 75.7758 10.0438C75.7758 11.1236 75.6449 12.0726 75.3831 12.8252C75.1213 13.5778 74.7614 14.1668 74.2378 14.5595C73.7143 14.9522 73.0925 15.1485 72.3399 15.1485H68.2168V15.1158ZM69.6239 13.8723H72.2417C72.7653 13.8723 73.158 13.7087 73.4852 13.4142C73.8124 13.1197 74.0415 12.6616 74.1724 12.0726C74.3033 11.4836 74.4014 10.7964 74.4014 10.011C74.4014 9.29113 74.3687 8.66939 74.2705 8.17855C74.1724 7.6877 74.0415 7.29503 73.8779 7.00052C73.7143 6.70601 73.4852 6.47695 73.1907 6.34606C72.9289 6.21517 72.6017 6.14972 72.2417 6.14972H69.6239V13.8723Z" fill="#313A5B"/>
<path d="M84.5801 15.1158V4.90625H88.3759C89.2922 4.90625 89.9794 5.13531 90.4375 5.56071C90.8956 6.01883 91.1247 6.67329 91.1247 7.52409C91.1247 7.94949 91.0592 8.30944 90.9283 8.63667C90.7974 8.93117 90.6338 9.19296 90.4048 9.3893C90.1757 9.58563 89.9466 9.71653 89.6849 9.81469C89.8812 9.88014 90.0775 9.94559 90.2739 10.0765C90.4702 10.1746 90.6665 10.3383 90.8629 10.5346C91.0592 10.7309 91.1901 10.9927 91.2883 11.2545C91.3865 11.549 91.4519 11.8762 91.4519 12.3016C91.4519 13.0215 91.321 13.5778 91.0919 14.0032C90.8629 14.4286 90.5357 14.7231 90.0775 14.8868C89.6521 15.0504 89.1286 15.1485 88.5068 15.1485H84.5801V15.1158ZM85.9872 9.32385H88.4414C88.8341 9.32385 89.1613 9.19296 89.3903 8.89845C89.6194 8.60395 89.7503 8.21127 89.783 7.75315C89.8158 7.16413 89.6849 6.73874 89.4231 6.50968C89.1613 6.28061 88.8013 6.14972 88.4087 6.14972H86.0199V9.32385H85.9872ZM85.9872 13.8723H88.5068C88.8341 13.8723 89.1286 13.8069 89.3576 13.7087C89.5867 13.6106 89.783 13.4142 89.9139 13.1524C90.0448 12.8907 90.1103 12.5307 90.1103 12.0399C90.1103 11.7126 90.0448 11.4181 89.8812 11.1563C89.7176 10.9273 89.5212 10.7309 89.2922 10.6C89.0631 10.4692 88.7686 10.4037 88.4741 10.4037H85.9544V13.8723H85.9872Z" fill="#313A5B"/>
<path d="M97.0135 15.1158V11.8108L93.8066 4.90625H95.2792L97.7334 10.4037L100.22 4.90625H101.627L98.4206 11.8435V15.1485H97.0135V15.1158Z" fill="#313A5B"/>
<path d="M157.289 15.0518V4.875H158.892L163.114 11.5832V4.875H165.143V15.0518H163.539L159.351 8.34363V15.0518H157.289Z" fill="#313A5B"/>
<path d="M171.066 15.1178C170.836 15.1178 170.607 15.085 170.313 15.0523C170.018 15.0196 169.757 14.9214 169.495 14.7905C169.233 14.6596 169.037 14.4306 168.84 14.1361C168.677 13.8416 168.611 13.4162 168.611 12.8926V7.19881C168.611 6.74069 168.677 6.38074 168.808 6.08623C168.939 5.79172 169.135 5.52994 169.364 5.36632C169.593 5.20271 169.855 5.07182 170.117 5.00637C170.378 4.94093 170.64 4.9082 170.935 4.9082C171.622 4.9082 172.211 4.9082 172.734 4.94093C173.258 4.97365 173.716 4.97365 174.141 5.00637C174.567 5.0391 174.927 5.0391 175.287 5.10454V6.80613H171.524C171.229 6.80613 171.033 6.87158 170.869 7.00247C170.706 7.13336 170.64 7.36243 170.64 7.62421V9.09674L174.632 9.19491V10.7983L170.607 10.8965V12.3036C170.607 12.5327 170.64 12.729 170.706 12.8599C170.771 12.9908 170.902 13.0889 171.033 13.1217C171.164 13.1544 171.295 13.1871 171.458 13.1871H175.254V14.8887C174.861 14.9214 174.403 14.9869 173.912 14.9869C173.422 15.0196 172.931 15.0523 172.44 15.0523C171.982 15.1178 171.491 15.1178 171.066 15.1178Z" fill="#313A5B"/>
<path d="M180.786 15.0518V6.70749H178.037V4.875H185.596V6.70749H182.815V15.0518H180.786Z" fill="#313A5B"/>
<path d="M188.41 15.0518V4.875H190.439V9.09626H194.235V4.875H196.264V15.0518H194.235V10.9615H190.439V15.0518H188.41Z" fill="#313A5B"/>
<path d="M202.151 15.1178C201.922 15.1178 201.693 15.085 201.399 15.0523C201.104 15.0196 200.843 14.9214 200.581 14.7905C200.319 14.6596 200.123 14.4306 199.926 14.1361C199.763 13.8416 199.697 13.4162 199.697 12.8926V7.19881C199.697 6.74069 199.763 6.38074 199.894 6.08623C200.024 5.79172 200.221 5.52994 200.45 5.36632C200.679 5.20271 200.941 5.07182 201.203 5.00637C201.464 4.94093 201.726 4.9082 202.021 4.9082C202.708 4.9082 203.297 4.9082 203.82 4.94093C204.344 4.97365 204.802 4.97365 205.227 5.00637C205.653 5.0391 206.013 5.0391 206.373 5.10454V6.80613H202.61C202.315 6.80613 202.119 6.87158 201.955 7.00247C201.792 7.13336 201.726 7.36243 201.726 7.62421V9.09674L205.718 9.19491V10.7983L201.693 10.8965V12.3036C201.693 12.5327 201.726 12.729 201.792 12.8599C201.857 12.9908 201.988 13.0889 202.119 13.1217C202.25 13.1544 202.381 13.1871 202.544 13.1871H206.34V14.8887C205.947 14.9214 205.489 14.9869 204.998 14.9869C204.508 15.0196 204.017 15.0523 203.526 15.0523C203.068 15.1178 202.577 15.1178 202.151 15.1178Z" fill="#313A5B"/>
<path d="M210.105 15.0518V4.875H214.261C214.654 4.875 215.047 4.94045 215.374 5.03861C215.734 5.13678 216.028 5.3004 216.29 5.52946C216.552 5.75852 216.748 6.08575 216.912 6.51115C217.075 6.93655 217.141 7.46011 217.141 8.1473C217.141 8.60542 217.108 8.99809 217.01 9.35805C216.912 9.68528 216.781 9.94706 216.65 10.1761C216.519 10.3725 216.323 10.5688 216.159 10.6997C215.963 10.8306 215.767 10.9287 215.57 11.0269L217.403 15.0518H215.341L213.738 11.2887C213.64 11.2887 213.509 11.2887 213.345 11.2887C213.214 11.2887 213.083 11.2887 212.92 11.2887C212.789 11.2887 212.625 11.2887 212.494 11.2887C212.363 11.2887 212.232 11.2887 212.102 11.2887V15.0518H210.105ZM212.102 9.65255H213.901C214.098 9.65255 214.261 9.61983 214.392 9.58711C214.523 9.55438 214.654 9.45621 214.785 9.35805C214.883 9.22715 214.981 9.09626 215.014 8.89992C215.079 8.70359 215.112 8.47453 215.112 8.1473C215.112 7.85279 215.079 7.62373 215.014 7.46011C214.948 7.26378 214.883 7.13288 214.785 7.03472C214.687 6.93655 214.556 6.83838 214.392 6.80565C214.261 6.77293 214.098 6.74021 213.901 6.74021H212.102V9.65255Z" fill="#313A5B"/>
<path d="M220.314 15.0518L221.492 4.875H223.423L225.746 12.6631L228.037 4.875H229.968L231.146 15.0518H229.182L228.299 7.55828L228.626 7.59101L226.663 15.0518H224.765L222.769 7.59101H223.096L222.278 15.0518H220.314Z" fill="#313A5B"/>
<path d="M234.646 15.0518V4.875H236.675V15.0518H234.646Z" fill="#313A5B"/>
<path d="M240.145 15.0518V4.875H241.748L245.969 11.5832V4.875H247.998V15.0518H246.395L242.206 8.34363V15.0518H240.145Z" fill="#313A5B"/>
<path d="M251.434 15.0518V4.875H255.688C256.375 4.875 256.931 5.00589 257.389 5.23495C257.847 5.46401 258.207 5.82397 258.469 6.28209C258.731 6.74021 258.927 7.26378 259.025 7.88551C259.123 8.50725 259.189 9.19443 259.189 9.94706C259.189 11.0924 259.058 12.0413 258.796 12.794C258.534 13.5466 258.142 14.1029 257.651 14.4956C257.127 14.8555 256.473 15.0518 255.688 15.0518H251.434ZM253.462 13.2194H255.491C255.917 13.2194 256.244 13.0885 256.473 12.8594C256.702 12.5976 256.898 12.2377 256.996 11.7468C257.127 11.256 257.16 10.667 257.16 9.94706C257.16 9.2926 257.127 8.73631 257.062 8.31091C256.997 7.88551 256.866 7.55828 256.735 7.2965C256.604 7.06744 256.407 6.90382 256.211 6.80565C256.015 6.70749 255.753 6.67476 255.491 6.67476H253.462V13.2194Z" fill="#313A5B"/>
<path d="M121.721 0.260721L120.281 5.62729C120.019 5.56184 119.758 5.56184 119.496 5.56184C119.103 5.56184 118.71 5.62729 118.351 5.72546C117.696 5.88907 117.107 6.2163 116.616 6.6417L112.689 2.71494C113.213 2.2241 113.769 1.83142 114.358 1.43875L114.653 1.27513C115.373 0.882457 116.125 0.587951 116.911 0.35889C117.729 0.129829 118.612 0.0316604 119.496 0.0316604C120.248 -0.00106256 121.001 0.0971063 121.721 0.260721Z" fill="#313A5B"/>
<path d="M149.239 7.75391C149.403 8.47381 149.501 9.22644 149.501 9.97907C149.501 10.8626 149.37 11.7461 149.174 12.5642C148.978 13.3495 148.65 14.1022 148.258 14.8221L148.094 15.1493C147.734 15.7383 147.309 16.2946 146.851 16.8182L142.924 12.8914C143.349 12.4006 143.676 11.8116 143.84 11.1571C143.938 10.7971 144.004 10.4045 144.004 10.0118C144.004 9.75001 143.971 9.48822 143.938 9.22644L149.239 7.75391Z" fill="#313A5B"/>
<path d="M138.016 14.2007L136.576 19.5673C135.922 19.3709 135.267 19.0764 134.678 18.7492L134.384 18.5856C133.664 18.1602 133.042 17.6366 132.453 17.0803L132.158 16.7858C131.929 16.5568 131.733 16.295 131.504 16.0332L135.398 12.1719L136.249 13.0554C136.281 13.0881 136.347 13.1536 136.38 13.1863C136.805 13.6117 137.361 13.9716 138.016 14.2007Z" fill="#313A5B"/>
<path d="M127.48 4.02383L123.586 7.88514L122.735 7.00162C122.703 6.9689 122.637 6.90346 122.604 6.87073C122.146 6.41261 121.557 6.05266 120.936 5.8236L122.375 0.457031C123.03 0.653369 123.684 0.947876 124.273 1.27511L124.568 1.43872C125.288 1.86412 125.942 2.38769 126.498 2.94398L126.793 3.23848C127.055 3.46754 127.284 3.72933 127.48 4.02383Z" fill="#313A5B"/>
<path d="M142.368 13.416L146.295 17.3428C145.771 17.8336 145.215 18.2263 144.626 18.619L144.331 18.7826C143.611 19.1753 142.859 19.4698 142.073 19.6988C141.255 19.9279 140.372 20.0261 139.488 20.0261C138.703 20.0261 137.95 19.9279 137.23 19.7643L138.67 14.3977C138.932 14.4632 139.194 14.4632 139.456 14.4632C139.848 14.4632 140.241 14.3977 140.601 14.2995C141.288 14.1359 141.877 13.8414 142.368 13.416Z" fill="#313A5B"/>
<path d="M121.916 13.7418L125.842 17.734C125.45 18.0612 125.057 18.323 124.632 18.5848L124.304 18.7484C123.617 19.1411 122.865 19.4356 122.046 19.6646C121.228 19.8937 120.345 19.9919 119.461 19.9919C118.578 19.9919 117.694 19.861 116.876 19.6646C116.091 19.4683 115.338 19.1411 114.651 18.7484L114.324 18.5521C113.637 18.1267 112.982 17.6358 112.393 17.0468C111.804 16.4578 111.313 15.8361 110.888 15.1161L110.724 14.8216C110.397 14.2326 110.135 13.5782 109.906 12.9237L115.273 11.4512C115.502 12.1056 115.862 12.6619 116.32 13.12C116.876 13.6763 117.563 14.069 118.316 14.2653C118.676 14.3635 119.069 14.429 119.461 14.429C119.854 14.429 120.247 14.3635 120.607 14.2653C121.098 14.1999 121.523 14.0036 121.916 13.7418Z" fill="#313A5B"/>
<path d="M112.132 3.17383L116.059 7.10058C115.633 7.59143 115.306 8.18044 115.143 8.8349C115.044 9.19485 114.979 9.58753 114.979 9.9802C114.979 10.242 115.012 10.5038 115.044 10.7656L109.678 12.2381C109.514 11.5182 109.416 10.7656 109.416 10.0129C109.416 9.12941 109.547 8.24589 109.743 7.42781C109.94 6.64246 110.267 5.88983 110.659 5.16993L110.823 4.8427C111.248 4.25369 111.674 3.6974 112.132 3.17383Z" fill="#313A5B"/>
<path d="M149.077 7.06669L143.711 8.53922C143.482 7.88476 143.122 7.32847 142.663 6.87035C142.107 6.31406 141.42 5.92138 140.667 5.72505C140.307 5.62688 139.915 5.56143 139.522 5.56143C139.129 5.56143 138.737 5.62688 138.377 5.72505C137.919 5.85594 137.493 6.05228 137.101 6.31406L133.174 2.32186C133.567 1.99463 133.959 1.73284 134.385 1.47106L134.712 1.27472C135.399 0.882047 136.152 0.58754 136.97 0.35848C137.788 0.129419 138.671 0.03125 139.555 0.03125C140.438 0.03125 141.322 0.162142 142.14 0.35848C142.925 0.554817 143.678 0.882047 144.398 1.27472L144.725 1.47106C145.445 1.89646 146.067 2.3873 146.656 2.97632C147.245 3.56533 147.736 4.18707 148.161 4.90697L148.325 5.20148C148.586 5.75777 148.848 6.41223 149.077 7.06669Z" fill="#313A5B"/>
</svg>
