<?xml version="1.0" encoding="UTF-8"?>
<!DOCTYPE svg PUBLIC "-//W3C//DTD SVG 1.1//EN" "http://www.w3.org/Graphics/SVG/1.1/DTD/svg11.dtd">
<svg xmlns="http://www.w3.org/2000/svg" version="1.1" width="225px" height="225px" style="shape-rendering:geometricPrecision; text-rendering:geometricPrecision; image-rendering:optimizeQuality; fill-rule:evenodd; clip-rule:evenodd" xmlns:xlink="http://www.w3.org/1999/xlink">
<g><path style="opacity:1" fill="#fefefe" d="M -0.5,-0.5 C 74.5,-0.5 149.5,-0.5 224.5,-0.5C 224.5,74.5 224.5,149.5 224.5,224.5C 149.5,224.5 74.5,224.5 -0.5,224.5C -0.5,149.5 -0.5,74.5 -0.5,-0.5 Z"/></g>
<g><path style="opacity:1" fill="#fbcb06" d="M 11.5,85.5 C 12.5,85.5 13.5,85.5 14.5,85.5C 14.5,103.167 14.5,120.833 14.5,138.5C 13.5,138.5 12.5,138.5 11.5,138.5C 11.5,120.833 11.5,103.167 11.5,85.5 Z"/></g>
<g><path style="opacity:1" fill="#fbca03" d="M 209.5,85.5 C 210.5,85.5 211.5,85.5 212.5,85.5C 212.5,103.167 212.5,120.833 212.5,138.5C 211.5,138.5 210.5,138.5 209.5,138.5C 209.5,120.833 209.5,103.167 209.5,85.5 Z"/></g>
<g><path style="opacity:1" fill="#2174b8" d="M 101.5,85.5 C 102.833,85.5 104.167,85.5 105.5,85.5C 105.333,97.5046 105.5,109.505 106,121.5C 107.011,122.337 108.178,122.67 109.5,122.5C 109.5,123.833 109.5,125.167 109.5,126.5C 105.83,126.673 103.33,125.007 102,121.5C 101.5,109.505 101.333,97.5046 101.5,85.5 Z"/></g>
<g><path style="opacity:1" fill="#3a7ebc" d="M 157.5,88.5 C 161.161,88.3501 162.161,89.8501 160.5,93C 156.707,93.4866 155.707,91.9866 157.5,88.5 Z"/></g>
<g><path style="opacity:1" fill="#aac8e3" d="M 160.5,98.5 C 161.494,107.652 161.827,116.985 161.5,126.5C 159.833,126.5 158.167,126.5 156.5,126.5C 156.5,118.5 156.5,110.5 156.5,102.5C 155.209,102.737 154.209,102.404 153.5,101.5C 154.833,101.5 156.167,101.5 157.5,101.5C 157.5,109.5 157.5,117.5 157.5,125.5C 158.5,125.5 159.5,125.5 160.5,125.5C 160.5,116.5 160.5,107.5 160.5,98.5 Z"/></g>
<g><path style="opacity:1" fill="#2875b9" d="M 126.5,98.5 C 139.495,97.4423 144.995,103.442 143,116.5C 138.104,127.574 131.104,129.241 122,121.5C 117.49,112.444 118.99,104.777 126.5,98.5 Z"/></g>
<g><path style="opacity:1" fill="#f8fbfc" d="M 128.5,101.5 C 137.836,102.125 141.336,107.125 139,116.5C 136.983,121.924 133.15,123.758 127.5,122C 123.809,117.865 122.642,113.031 124,107.5C 124.804,104.854 126.304,102.854 128.5,101.5 Z"/></g>
<g><path style="opacity:1" fill="#0c6db6" d="M 160.5,98.5 C 160.5,107.5 160.5,116.5 160.5,125.5C 159.5,125.5 158.5,125.5 157.5,125.5C 157.5,117.5 157.5,109.5 157.5,101.5C 156.167,101.5 154.833,101.5 153.5,101.5C 153.5,100.5 153.5,99.5 153.5,98.5C 155.833,98.5 158.167,98.5 160.5,98.5 Z"/></g>
<g><path style="opacity:1" fill="#2575b9" d="M 41.5,97.5 C 46.813,98.0978 52.1463,98.4312 57.5,98.5C 57.5,99.5 57.5,100.5 57.5,101.5C 56.5,101.5 55.5,101.5 54.5,101.5C 57.1283,113.711 52.1283,119.211 39.5,118C 38.6433,118.689 37.9767,119.522 37.5,120.5C 43.5794,121.085 49.5794,121.918 55.5,123C 57.4782,125.497 57.9782,128.331 57,131.5C 50.6185,138.942 43.2851,140.275 35,135.5C 33.8596,131.611 34.693,128.278 37.5,125.5C 33.3155,121.91 33.6488,118.743 38.5,116C 32.5207,108.709 33.5207,102.542 41.5,97.5 Z"/></g>
<g><path style="opacity:1" fill="#f7fafc" d="M 41.5,100.5 C 49.775,99.7064 52.9417,103.373 51,111.5C 47,116.833 43,116.833 39,111.5C 37.9464,107.345 38.7798,103.678 41.5,100.5 Z"/></g>
<g><path style="opacity:1" fill="#2976ba" d="M 73.5,98.5 C 78.7654,97.5706 83.2654,98.9039 87,102.5C 87.3333,108.833 87.6667,115.167 88,121.5C 89.8921,122.617 90.7254,124.284 90.5,126.5C 87.7147,126.067 85.3813,124.734 83.5,122.5C 78.2578,127.659 73.0912,127.659 68,122.5C 65.9125,115.587 68.4125,111.42 75.5,110C 78.146,109.503 80.8127,109.336 83.5,109.5C 83.9452,106.635 83.2785,104.135 81.5,102C 77.7959,101.196 74.2959,101.696 71,103.5C 69.2119,100.745 70.0452,99.078 73.5,98.5 Z"/></g>
<g><path style="opacity:1" fill="#f7fbfb" d="M 75.5,112.5 C 78.1667,112.5 80.8333,112.5 83.5,112.5C 84.3364,120.829 80.6698,123.995 72.5,122C 71.1955,121.196 70.5288,120.029 70.5,118.5C 71.4649,115.872 73.1315,113.872 75.5,112.5 Z"/></g>
<g><path style="opacity:1" fill="#2474b9" d="M 178.5,98.5 C 182.637,98.1463 186.637,98.6463 190.5,100C 189.874,100.75 189.374,101.584 189,102.5C 185.927,101.383 182.76,101.216 179.5,102C 177.398,103.733 177.065,105.733 178.5,108C 182.85,109.449 187.016,111.282 191,113.5C 193.601,118.502 192.434,122.335 187.5,125C 183.167,125.667 178.833,125.667 174.5,125C 172.015,123.777 171.848,122.277 174,120.5C 177.66,122.213 181.493,122.713 185.5,122C 189.037,120.174 189.371,117.84 186.5,115C 182.195,114.097 178.361,112.263 175,109.5C 172.35,104.562 173.517,100.895 178.5,98.5 Z"/></g>
<g><path style="opacity:1" fill="#f2f8fa" d="M 40.5,125.5 C 44.5138,125.334 48.5138,125.501 52.5,126C 54.2876,131.251 52.2876,134.251 46.5,135C 37.1892,136.155 35.1892,132.989 40.5,125.5 Z"/></g>
</svg>
