<?xml version="1.0" encoding="UTF-8"?>
<svg version="1.1" xmlns="http://www.w3.org/2000/svg" width="100" height="100">
<path d="M0 0 C9.76616302 -0.52521516 17.09309168 5.84466705 24.5 11.5625 C25.39912109 12.25049683 25.39912109 12.25049683 26.31640625 12.95239258 C29.65242458 15.60591399 32.284043 17.98960049 34 22 C33.93359375 24.12109375 33.93359375 24.12109375 33 26 C31.22265625 27.59765625 31.22265625 27.59765625 29.0625 29.0625 C26.24817107 30.98809348 24.94133991 32.08799013 23 35 C24.5778125 35.0928125 24.5778125 35.0928125 26.1875 35.1875 C31.77781182 36.37887793 33.92212649 39.38318974 37 44 C36.625 46.1875 36.625 46.1875 36 48 C34.39125 48.0928125 34.39125 48.0928125 32.75 48.1875 C26.80093018 48.9671806 21.10303733 50.82279045 16 54 C14.59697098 57.48188593 14.59697098 57.48188593 15 61 C13.97442198 67.43202015 8.83772111 71.59400483 3.890625 75.37890625 C-1.55312458 79.2491711 -7.16778135 82.74741652 -13 86 C-14.44460222 86.94759351 -15.88154186 87.90692571 -17.3125 88.875 C-22.0974997 92.1032361 -26.99250154 95.12868828 -32 98 C-32.66902344 98.38414063 -33.33804688 98.76828125 -34.02734375 99.1640625 C-36.26304395 100.11146813 -37.83547746 100.20548408 -40.25 100.125 C-41.4875 100.08375 -42.725 100.0425 -44 100 C-44 96.30465565 -43.63342306 94.63342306 -41 92 C-40.03313377 90.90329744 -39.07567721 89.79826534 -38.125 88.6875 C-37.59648438 88.07132812 -37.06796875 87.45515625 -36.5234375 86.8203125 C-35.22431776 85.26803097 -33.98085486 83.6694494 -32.75 82.0625 C-32.1725 81.381875 -31.595 80.70125 -31 80 C-30.34 80 -29.68 80 -29 80 C-28.73445313 79.42121094 -28.46890625 78.84242187 -28.1953125 78.24609375 C-25.265318 72.74038514 -21.26901513 68.45178765 -15.625 65.8125 C-13.52582928 64.787467 -13.52582928 64.787467 -12 63 C-11.01083607 58.64980596 -10.89578772 54.44856164 -11 50 C-20.17462192 46.08438383 -29.45743312 46.53641476 -39.24438477 46.48876953 C-41.46401963 46.4731433 -43.68292618 46.44020482 -45.90234375 46.40625 C-47.21710693 46.39916016 -48.53187012 46.39207031 -49.88647461 46.38476562 C-50.91393799 46.25779297 -51.94140137 46.13082031 -53 46 C-55 43 -55 43 -54.8125 41 C-53.85842642 38.65151119 -52.97312042 37.58844986 -51 36 C-48.89289856 35.63923645 -48.89289856 35.63923645 -46.43676758 35.65942383 C-45.51603958 35.65965042 -44.59531158 35.65987701 -43.64668274 35.66011047 C-42.65597275 35.67559433 -41.66526276 35.69107819 -40.64453125 35.70703125 C-39.62775803 35.71127609 -38.6109848 35.71552094 -37.56340027 35.71989441 C-34.31283188 35.73670003 -31.0628813 35.77435618 -27.8125 35.8125 C-25.61003499 35.82754438 -23.40756027 35.84123321 -21.20507812 35.85351562 C-15.80317428 35.88660964 -10.40163128 35.93682777 -5 36 C-5 35.34 -5 34.68 -5 34 C-4.34 34 -3.68 34 -3 34 C-3 33.01 -3 32.02 -3 31 C-2.34 31 -1.68 31 -1 31 C-0.7215625 29.9171875 -0.7215625 29.9171875 -0.4375 28.8125 C1.53334841 24.95649225 4.39798015 23.26330124 8 21 C6.86709234 17.70426861 5.38738351 15.04469925 3.4375 12.1875 C0.78214855 8.08732497 0.25942456 4.84259179 0 0 Z " fill="#C7B888" transform="translate(59,0)"/>
<path d="M0 0 C0.721875 0.680625 1.44375 1.36125 2.1875 2.0625 C4.8205652 4.31737069 4.8205652 4.31737069 7.8125 3.75 C8.534375 3.5025 9.25625 3.255 10 3 C10 2.34 10 1.68 10 1 C10.66 1.33 11.32 1.66 12 2 C11.67 3.32 11.34 4.64 11 6 C11.66 6 12.32 6 13 6 C13.66 4.35 14.32 2.7 15 1 C18 4.625 18 4.625 18 8 C16.68 8.33 15.36 8.66 14 9 C14.37125 9.86625 14.7425 10.7325 15.125 11.625 C16.19110288 15.7371111 15.78800911 17.18170413 14 21 C11.93161481 22.78777908 10.09364343 24.18604145 7.8125 25.625 C7.22243164 26.01469971 6.63236328 26.40439941 6.02441406 26.8059082 C2.1019562 29.37346301 -1.90828819 31.7180838 -6 34 C-7.44460222 34.94759351 -8.88154186 35.90692571 -10.3125 36.875 C-15.0974997 40.1032361 -19.99250154 43.12868828 -25 46 C-25.66902344 46.38414063 -26.33804687 46.76828125 -27.02734375 47.1640625 C-29.26304395 48.11146813 -30.83547746 48.20548408 -33.25 48.125 C-34.4875 48.08375 -35.725 48.0425 -37 48 C-37 44.30465565 -36.63342306 42.63342306 -34 40 C-33.03313377 38.90329744 -32.07567721 37.79826534 -31.125 36.6875 C-30.33222656 35.76324219 -30.33222656 35.76324219 -29.5234375 34.8203125 C-28.22431776 33.26803097 -26.98085486 31.6694494 -25.75 30.0625 C-25.1725 29.381875 -24.595 28.70125 -24 28 C-23.34 28 -22.68 28 -22 28 C-21.73703125 27.4225 -21.4740625 26.845 -21.203125 26.25 C-18.13847944 20.5187148 -12.93533817 14.62524573 -7 12 C-3.26842067 11.98449482 0.32118663 12.39777432 4 13 C4 12.67 4 12.34 4 12 C2.02 12 0.04 12 -2 12 C-1.85831863 10.56208484 -1.71148957 9.1246763 -1.5625 7.6875 C-1.48128906 6.88699219 -1.40007813 6.08648437 -1.31640625 5.26171875 C-1 3 -1 3 0 0 Z " fill="#4A4E4E" transform="translate(52,52)"/>
<path d="M0 0 C3.40312738 1.05875074 6.01353231 2.00902154 9 4 C9 4.99 9 5.98 9 7 C8.34 7 7.68 7 7 7 C7 8.65 7 10.3 7 12 C6.01 12.33 5.02 12.66 4 13 C3.34 13.99 2.68 14.98 2 16 C-0.625 16.1875 -0.625 16.1875 -3 16 C-3 16.66 -3 17.32 -3 18 C-4.65 18 -6.3 18 -8 18 C-8 19.32 -8 20.64 -8 22 C-8.66 22 -9.32 22 -10 22 C-10.33 20.35 -10.66 18.7 -11 17 C-13.31 16.34 -15.62 15.68 -18 15 C-18.33 15.66 -18.66 16.32 -19 17 C-19 16.34 -19 15.68 -19 15 C-19.64735107 15.03029297 -20.29470215 15.06058594 -20.96166992 15.09179688 C-32.61480477 15.62610867 -44.27212074 16.10998662 -55.9375 16.25 C-56.82397217 16.27126953 -57.71044434 16.29253906 -58.6237793 16.31445312 C-61.08984375 16.328125 -61.08984375 16.328125 -65 16 C-67 13 -67 13 -66.8125 11 C-65.85842642 8.65151119 -64.97312042 7.58844986 -63 6 C-60.89289856 5.63923645 -60.89289856 5.63923645 -58.43676758 5.65942383 C-57.51603958 5.65965042 -56.59531158 5.65987701 -55.64668274 5.66011047 C-54.65597275 5.67559433 -53.66526276 5.69107819 -52.64453125 5.70703125 C-51.62775803 5.71127609 -50.6109848 5.71552094 -49.56340027 5.71989441 C-46.31283188 5.73670003 -43.0628813 5.77435618 -39.8125 5.8125 C-37.61003499 5.82754438 -35.40756027 5.84123321 -33.20507812 5.85351562 C-27.80317428 5.88660964 -22.40163128 5.93682777 -17 6 C-17 5.34 -17 4.68 -17 4 C-16.34 4.33 -15.68 4.66 -15 5 C-12.15271125 5 -9.27449806 4.51569076 -6.4453125 4.21875 C-4 4 -4 4 -1 4 C-0.67 2.68 -0.34 1.36 0 0 Z " fill="#DC8D5D" transform="translate(71,30)"/>
<path d="M0 0 C8.09601134 -0.51195366 14.59474072 3.82423281 20.6875 8.875 C21.450625 9.57625 22.21375 10.2775 23 11 C22.67 12.65 22.34 14.3 22 16 C22.99 16.33 23.98 16.66 25 17 C24.625 19.375 24.625 19.375 23 22 C20.55614151 22.69566397 18.13365716 23.02647601 15.62109375 23.3984375 C11.57989735 24.3259252 9.16718918 26.38362633 6 29 C5.34 28.67 4.68 28.34 4 28 C4.825 27.236875 5.65 26.47375 6.5 25.6875 C9.34055197 23.24565858 9.34055197 23.24565858 9 20 C7.75701819 18.02889654 7.75701819 18.02889654 6.125 16.0625 C1.82470989 10.6715566 0.67909101 6.79091007 0 0 Z " fill="#4C5255" transform="translate(59,0)"/>
<path d="M0 0 C1.0828125 1.0209375 1.0828125 1.0209375 2.1875 2.0625 C4.8205652 4.31737069 4.8205652 4.31737069 7.8125 3.75 C8.534375 3.5025 9.25625 3.255 10 3 C10 2.34 10 1.68 10 1 C10.66 1.33 11.32 1.66 12 2 C11.67 3.32 11.34 4.64 11 6 C11.66 6 12.32 6 13 6 C13.66 4.35 14.32 2.7 15 1 C18 4.625 18 4.625 18 8 C16.68 8.33 15.36 8.66 14 9 C14.556875 10.299375 14.556875 10.299375 15.125 11.625 C16.1935991 15.74673939 15.79575491 17.17195258 14 21 C11.87112917 22.90221208 9.97932523 24.39474283 7.625 25.9375 C7.0475 26.34806641 6.47 26.75863281 5.875 27.18164062 C1.61848393 30.06304933 1.61848393 30.06304933 -1.4140625 29.75390625 C-1.93742187 29.50511719 -2.46078125 29.25632812 -3 29 C-3.2165625 27.39125 -3.2165625 27.39125 -3.4375 25.75 C-3.83749442 23.08337051 -4.27591924 20.58600271 -5 18 C-3.68 18.33 -2.36 18.66 -1 19 C-1.66 21.31 -2.32 23.62 -3 26 C-1.2236068 27.0745356 -1.2236068 27.0745356 0 27 C0.33 25.35 0.66 23.7 1 22 C1.66 22 2.32 22 3 22 C3 22.99 3 23.98 3 25 C3.66 24.34 4.32 23.68 5 23 C4.67 22.34 4.34 21.68 4 21 C5.32 21.33 6.64 21.66 8 22 C8.33 21.34 8.66 20.68 9 20 C7.02 19.34 5.04 18.68 3 18 C3 16 3 16 4.5 14.375 C4.995 13.92125 5.49 13.4675 6 13 C3.29120665 11.64560332 0.99066732 11.93498549 -2 12 C-1.85831863 10.56208484 -1.71148957 9.1246763 -1.5625 7.6875 C-1.48128906 6.88699219 -1.40007813 6.08648437 -1.31640625 5.26171875 C-1 3 -1 3 0 0 Z " fill="#7D858D" transform="translate(52,52)"/>
<path d="M0 0 C3.40312738 1.05875074 6.01353231 2.00902154 9 4 C9 4.99 9 5.98 9 7 C8.34 7 7.68 7 7 7 C7 8.65 7 10.3 7 12 C6.01 12.33 5.02 12.66 4 13 C3.01 14.485 3.01 14.485 2 16 C-0.625 16.1875 -0.625 16.1875 -3 16 C-3 16.66 -3 17.32 -3 18 C-4.65 18 -6.3 18 -8 18 C-8 19.32 -8 20.64 -8 22 C-8.66 22 -9.32 22 -10 22 C-10.33 20.35 -10.66 18.7 -11 17 C-13.31 16.34 -15.62 15.68 -18 15 C-18.33 15.66 -18.66 16.32 -19 17 C-19 16.34 -19 15.68 -19 15 C-19.99 15 -20.98 15 -22 15 C-22 14.34 -22 13.68 -22 13 C-21.01 13 -20.02 13 -19 13 C-19 12.01 -19 11.02 -19 10 C-18.34 10.33 -17.68 10.66 -17 11 C-16.01 10.34 -15.02 9.68 -14 9 C-14 9.66 -14 10.32 -14 11 C-13.236875 10.690625 -12.47375 10.38125 -11.6875 10.0625 C-9.81210323 9.32106407 -7.91315348 8.63771783 -6 8 C-5.67 8.33 -5.34 8.66 -5 9 C-5 8.01 -5 7.02 -5 6 C-7.31 6.33 -9.62 6.66 -12 7 C-12.33 6.34 -12.66 5.68 -13 5 C-11.56274129 4.83126522 -10.12518162 4.66509263 -8.6875 4.5 C-7.88699219 4.4071875 -7.08648437 4.314375 -6.26171875 4.21875 C-4 4 -4 4 -1 4 C-0.67 2.68 -0.34 1.36 0 0 Z " fill="#A36844" transform="translate(71,30)"/>
<path d="M0 0 C4.35990873 -0.07418046 8.71948279 -0.12861544 13.07983398 -0.16479492 C14.56297199 -0.17987768 16.04606544 -0.20034689 17.52905273 -0.22631836 C19.66140745 -0.26272616 21.79317235 -0.27973073 23.92578125 -0.29296875 C25.85031128 -0.31653442 25.85031128 -0.31653442 27.8137207 -0.34057617 C31 0 31 0 32.94213867 1.26831055 C34 3 34 3 34 7 C34.66 7 35.32 7 36 7 C35.505 5.02 35.505 5.02 35 3 C38.75 1.875 38.75 1.875 41 3 C41 2.34 41 1.68 41 1 C41.66 1 42.32 1 43 1 C43.25 7.625 43.25 7.625 41 11 C40.505 10.01 40.505 10.01 40 9 C39.67 10.98 39.34 12.96 39 15 C37.02 14.67 35.04 14.34 33 14 C33.99 13.01 34.98 12.02 36 11 C35.505 10.505 35.505 10.505 35 10 C35 10.66 35 11.32 35 12 C33.02 12 31.04 12 29 12 C29 11.34 29 10.68 29 10 C27.68 10 26.36 10 25 10 C24.34 12.97 23.68 15.94 23 19 C26.465 18.505 26.465 18.505 30 18 C29.67 18.99 29.34 19.98 29 21 C22.84765625 20.4140625 22.84765625 20.4140625 21 20 C19.52806688 17.05613377 20.15063827 14.62609964 20.4375 11.375 C20.53933594 10.18648437 20.64117187 8.99796875 20.74609375 7.7734375 C20.82988281 6.85820313 20.91367187 5.94296875 21 5 C14.04931961 2.20919651 7.45491562 1.36580804 0 1 C0 0.67 0 0.34 0 0 Z " fill="#9AA0A7" transform="translate(27,45)"/>
<path d="M0 0 C4.16316516 1.85029563 7.76676086 4.20619762 10.375 8 C11.17836835 10.57077871 11.24518151 11.58746083 10 14 C6.9375 15.75 6.9375 15.75 4 17 C4 15 4 15 6 13 C5.01 13 4.02 13 3 13 C3 13.66 3 14.32 3 15 C2.01 14.67 1.02 14.34 0 14 C-3.94254197 12.94865548 -5.55358337 12.80985958 -9.375 14.4375 C-10.24125 14.953125 -11.1075 15.46875 -12 16 C-12 16.99 -12 17.98 -12 19 C-12 19.99 -12 20.98 -12 22 C-12.91523437 22.13277344 -13.83046875 22.26554687 -14.7734375 22.40234375 C-15.96195313 22.57894531 -17.15046875 22.75554688 -18.375 22.9375 C-19.55835938 23.11152344 -20.74171875 23.28554688 -21.9609375 23.46484375 C-24.90702381 23.83462786 -24.90702381 23.83462786 -27 25 C-26.67 23.02 -26.34 21.04 -26 19 C-25.34 19 -24.68 19 -24 19 C-23.76539063 18.24332031 -23.53078125 17.48664062 -23.2890625 16.70703125 C-21.76490328 13.50629689 -20.36493058 12.52417164 -17.375 10.6875 C-16.55773437 10.17574219 -15.74046875 9.66398437 -14.8984375 9.13671875 C-14.27195312 8.76160156 -13.64546875 8.38648438 -13 8 C-12.34 8.66 -11.68 9.32 -11 10 C-14.75 13 -14.75 13 -17 13 C-17 13.99 -17 14.98 -17 16 C-16.443125 15.57847656 -15.88625 15.15695313 -15.3125 14.72265625 C-10.07554003 10.96301438 -6.45894361 9.23487068 0 9 C0.33 7.68 0.66 6.36 1 5 C0.34 4.67 -0.32 4.34 -1 4 C-0.67 2.68 -0.34 1.36 0 0 Z " fill="#A3ABB3" transform="translate(82,12)"/>
<path d="M0 0 C0.66 0.66 1.32 1.32 2 2 C1.01 3.485 1.01 3.485 0 5 C-0.66 5 -1.32 5 -2 5 C-1.67 5.66 -1.34 6.32 -1 7 C1.02463255 7.65213292 1.02463255 7.65213292 3 8 C3 9.32 3 10.64 3 12 C2.67 11.34 2.34 10.68 2 10 C0.68 11.65 -0.64 13.3 -2 15 C-2.33 14.34 -2.66 13.68 -3 13 C-2.67 12.34 -2.34 11.68 -2 11 C-2.66 11 -3.32 11 -4 11 C-4.33 13.31 -4.66 15.62 -5 18 C-6.5625 16.8125 -6.5625 16.8125 -8 15 C-7.73904456 12.32520673 -7.1995243 10.39904859 -6 8 C-8.88214887 8.88214887 -8.88214887 8.88214887 -11 10 C-10.67 10.66 -10.34 11.32 -10 12 C-11.65 12.33 -13.3 12.66 -15 13 C-15 12.67 -15 12.34 -15 12 C-16.65 12 -18.3 12 -20 12 C-20.061875 12.94875 -20.12375 13.8975 -20.1875 14.875 C-20.455625 15.90625 -20.72375 16.9375 -21 18 C-23.5625 19.375 -23.5625 19.375 -26 20 C-26.66 19.34 -27.32 18.68 -28 18 C-24.48582616 11.38508453 -18.93485214 4.06733844 -12 1 C-8.26842067 0.98449482 -4.67881337 1.39777432 -1 2 C-0.67 1.34 -0.34 0.68 0 0 Z " fill="#2F3231" transform="translate(57,63)"/>
<path d="M0 0 C-7.36609034 5.58256847 -14.89876921 10.54612869 -23 15 C-23.68707031 15.391875 -24.37414063 15.78375 -25.08203125 16.1875 C-27.28744254 17.12176792 -28.86733356 17.20442221 -31.25 17.125 C-32.4875 17.08375 -33.725 17.0425 -35 17 C-35 14 -35 14 -34 11 C-33.34 11 -32.68 11 -32 11 C-32 11.99 -32 12.98 -32 14 C-31.01 14 -30.02 14 -29 14 C-29.33 13.01 -29.66 12.02 -30 11 C-28.68 10.67 -27.36 10.34 -26 10 C-26 9.01 -26 8.02 -26 7 C-25.34 7 -24.68 7 -24 7 C-23.67 6.01 -23.34 5.02 -23 4 C-22.34 4.33 -21.68 4.66 -21 5 C-21.99 6.485 -21.99 6.485 -23 8 C-22.34 8 -21.68 8 -21 8 C-20.67 7.01 -20.34 6.02 -20 5 C-19.34 5 -18.68 5 -18 5 C-18.33 4.01 -18.66 3.02 -19 2 C-17.96875 2.04125 -16.9375 2.0825 -15.875 2.125 C-12.09879894 2.00318706 -9.49460651 1.35018888 -6 0 C-3 -1 -3 -1 0 0 Z " fill="#616565" transform="translate(50,83)"/>
<path d="M0 0 C3.42506589 0.01307277 6.66411013 0.19082483 10 1 C12.6875 3.8125 12.6875 3.8125 14 7 C13.67 8.32 13.34 9.64 13 11 C9.7 11 6.4 11 3 11 C3.33 10.01 3.66 9.02 4 8 C3.01 7.34 2.02 6.68 1 6 C0.67 7.32 0.34 8.64 0 10 C-1.32 9.67 -2.64 9.34 -4 9 C-3.34 8.01 -2.68 7.02 -2 6 C-2 4.68 -2 3.36 -2 2 C-1.34 2 -0.68 2 0 2 C0 1.34 0 0.68 0 0 Z " fill="#6C6E70" transform="translate(82,37)"/>
<path d="M0 0 C8.25 0 16.5 0 25 0 C25 11.25 25 11.25 24 15.125 C23.814375 15.87007812 23.62875 16.61515625 23.4375 17.3828125 C23.2209375 18.18332031 23.2209375 18.18332031 23 19 C26.465 18.505 26.465 18.505 30 18 C29.67 18.99 29.34 19.98 29 21 C22.84765625 20.4140625 22.84765625 20.4140625 21 20 C19.52806688 17.05613377 20.15063827 14.62609964 20.4375 11.375 C20.53933594 10.18648437 20.64117187 8.99796875 20.74609375 7.7734375 C20.82988281 6.85820313 20.91367187 5.94296875 21 5 C14.04931961 2.20919651 7.45491562 1.36580804 0 1 C0 0.67 0 0.34 0 0 Z " fill="#B7BBBD" transform="translate(27,45)"/>
<path d="M0 0 C0.99 0.66 1.98 1.32 3 2 C-0.75 5 -0.75 5 -3 5 C-3 5.99 -3 6.98 -3 8 C-2.34 8.66 -1.68 9.32 -1 10 C-1.33 10.33 -1.66 10.66 -2 11 C-0.68 11 0.64 11 2 11 C2 11.99 2 12.98 2 14 C1.08476563 14.13277344 0.16953125 14.26554687 -0.7734375 14.40234375 C-1.96195313 14.57894531 -3.15046875 14.75554688 -4.375 14.9375 C-5.55835938 15.11152344 -6.74171875 15.28554688 -7.9609375 15.46484375 C-10.90702381 15.83462786 -10.90702381 15.83462786 -13 17 C-12.67 15.02 -12.34 13.04 -12 11 C-11.34 11 -10.68 11 -10 11 C-9.835 10.29875 -9.67 9.5975 -9.5 8.875 C-7.31464835 4.68640933 -3.85328838 2.60769051 0 0 Z " fill="#816E62" transform="translate(68,20)"/>
<path d="M0 0 C8.09601134 -0.51195366 14.59474072 3.82423281 20.6875 8.875 C21.450625 9.57625 22.21375 10.2775 23 11 C22.67 11.66 22.34 12.32 22 13 C21.34 13 20.68 13 20 13 C20 15.31 20 17.62 20 20 C19.67 20 19.34 20 19 20 C18.93941406 19.36191406 18.87882812 18.72382813 18.81640625 18.06640625 C18.69072266 16.82697266 18.69072266 16.82697266 18.5625 15.5625 C18.48128906 14.73878906 18.40007812 13.91507813 18.31640625 13.06640625 C18.21069185 11.01337975 18.21069185 11.01337975 17 10 C16.31731862 8.67479497 15.6492959 7.34187818 15 6 C12.49642139 6.8345262 10.33214148 7.79371992 8 9 C8 7.35 8 5.7 8 4 C7.01 5.485 7.01 5.485 6 7 C5.34 7 4.68 7 4 7 C3.67 5.68 3.34 4.36 3 3 C3 4.98 3 6.96 3 9 C2.34 8.67 1.68 8.34 1 8 C0.40644386 5.35139573 0.25790731 2.70802678 0 0 Z " fill="#797E82" transform="translate(59,0)"/>
<path d="M0 0 C0.33 0.66 0.66 1.32 1 2 C1.99 1.67 2.98 1.34 4 1 C4.99 2.32 5.98 3.64 7 5 C7.66 4.67 8.32 4.34 9 4 C11.125 4.9375 11.125 4.9375 13 6 C12.67 6.99 12.34 7.98 12 9 C10.35 9 8.7 9 7 9 C7 10.32 7 11.64 7 13 C6.34 13 5.68 13 5 13 C4.67 11.35 4.34 9.7 4 8 C1.69 7.34 -0.62 6.68 -3 6 C-3.33 6.66 -3.66 7.32 -4 8 C-4 7.34 -4 6.68 -4 6 C-4.99 6 -5.98 6 -7 6 C-7 5.34 -7 4.68 -7 4 C-6.01 4 -5.02 4 -4 4 C-4 3.01 -4 2.02 -4 1 C-3.34 1.33 -2.68 1.66 -2 2 C-1.34 1.34 -0.68 0.68 0 0 Z " fill="#8F5D3E" transform="translate(56,39)"/>
<path d="M0 0 C2 2 2 2 2 6 C2.66 6 3.32 6 4 6 C4.33 4.68 4.66 3.36 5 2 C5.66 2.33 6.32 2.66 7 3 C7.625 5.0625 7.625 5.0625 8 7 C8.33 6.01 8.66 5.02 9 4 C10.875 4.3125 10.875 4.3125 13 5 C13.99 6.485 13.99 6.485 15 8 C15.99 8.33 16.98 8.66 18 9 C17.34 10.98 16.68 12.96 16 15 C14.0625 14.1875 14.0625 14.1875 12 13 C11.67 12.01 11.34 11.02 11 10 C7.7 9.34 4.4 8.68 1 8 C0.67 5.36 0.34 2.72 0 0 Z " fill="#3F4448" transform="translate(61,1)"/>
<path d="M0 0 C-0.99 0.495 -0.99 0.495 -2 1 C-2 1.99 -2 2.98 -2 4 C-2.99 4 -3.98 4 -5 4 C-5.66 5.32 -6.32 6.64 -7 8 C-8.98 7.01 -10.96 6.02 -13 5 C-13.33 5.66 -13.66 6.32 -14 7 C-14.66 6.34 -15.32 5.68 -16 5 C-10.52529678 -0.86575345 -7.72732998 -1.28788833 0 0 Z " fill="#99A2AB" transform="translate(84,25)"/>
<path d="M0 0 C5.61 0 11.22 0 17 0 C17 0.66 17 1.32 17 2 C16.01 2 15.02 2 14 2 C14 2.66 14 3.32 14 4 C10.22856018 3.8902432 6.45812903 3.75958521 2.6875 3.625 C1.0797168 3.57859375 1.0797168 3.57859375 -0.56054688 3.53125 C-1.58857422 3.49257813 -2.61660156 3.45390625 -3.67578125 3.4140625 C-4.62364502 3.3826416 -5.57150879 3.3512207 -6.5480957 3.31884766 C-9 3 -9 3 -12 1 C-7.83861737 0.91840426 -4.0527516 1.01751476 0 2 C0 1.34 0 0.68 0 0 Z " fill="#C47048" transform="translate(35,41)"/>
<path d="M0 0 C0.33 0.66 0.66 1.32 1 2 C0.67 2.66 0.34 3.32 0 4 C0.99 4.33 1.98 4.66 3 5 C2.625 7.375 2.625 7.375 1 10 C-1.44385849 10.69566397 -3.86634284 11.02647601 -6.37890625 11.3984375 C-10.42010265 12.3259252 -12.83281082 14.38362633 -16 17 C-16.66 16.67 -17.32 16.34 -18 16 C-13.14473684 10.74013158 -13.14473684 10.74013158 -9 10 C-8.67 9.34 -8.34 8.68 -8 8 C-7.175 7.731875 -6.35 7.46375 -5.5 7.1875 C-4.675 6.795625 -3.85 6.40375 -3 6 C-2.26259783 3.48051222 -2.26259783 3.48051222 -2 1 C-1.34 0.67 -0.68 0.34 0 0 Z " fill="#373D42" transform="translate(81,12)"/>
<path d="M0 0 C0.33 0.99 0.66 1.98 1 3 C0.34 3 -0.32 3 -1 3 C-1.33 4.32 -1.66 5.64 -2 7 C-2.99 6.67 -3.98 6.34 -5 6 C-4.67 5.01 -4.34 4.02 -4 3 C-4.33 3.66 -4.66 4.32 -5 5 C-5.66 5 -6.32 5 -7 5 C-7 5.99 -7 6.98 -7 8 C-7.99 8.66 -8.98 9.32 -10 10 C-9.67 10.99 -9.34 11.98 -9 13 C-9.99 13.495 -9.99 13.495 -11 14 C-11 13.34 -11 12.68 -11 12 C-11.66 12 -12.32 12 -13 12 C-13.3125 9.3125 -13.3125 9.3125 -13 6 C-9.02377523 1.16405096 -6.15963494 -0.16647662 0 0 Z " fill="#313433" transform="translate(31,85)"/>
<path d="M0 0 C-0.33 0.99 -0.66 1.98 -1 3 C-1.66 3 -2.32 3 -3 3 C-3.33 5.31 -3.66 7.62 -4 10 C-6.375 10.1875 -6.375 10.1875 -9 10 C-11 7 -11 7 -10.8125 5 C-8.57968587 -0.49615785 -5.64088852 -0.31929558 0 0 Z " fill="#5F5E5D" transform="translate(15,36)"/>
<path d="M0 0 C0.66 0.33 1.32 0.66 2 1 C1.67 1.99 1.34 2.98 1 4 C-2.84709023 5.28236341 -6.39012671 5.01501341 -10.38671875 4.87890625 C-11.20372757 4.85529526 -12.02073639 4.83168427 -12.86250305 4.80735779 C-15.47101593 4.73080782 -18.07922544 4.64674628 -20.6875 4.5625 C-22.45636538 4.50927063 -24.22524555 4.45653028 -25.99414062 4.40429688 C-30.32961906 4.27520441 -34.66484043 4.13937489 -39 4 C-39 3.34 -39 2.68 -39 2 C-26.13 2 -13.26 2 0 2 C0 1.34 0 0.68 0 0 Z " fill="#DDB292" transform="translate(54,34)"/>
<path d="M0 0 C1.77074917 -0.02705729 3.54161711 -0.04642195 5.3125 -0.0625 C6.29863281 -0.07410156 7.28476562 -0.08570313 8.30078125 -0.09765625 C11 0 11 0 14 1 C16.39254576 1.22560676 18.78928123 1.40848595 21.1875 1.5625 C23.09595703 1.68818359 23.09595703 1.68818359 25.04296875 1.81640625 C26.01878906 1.87699219 26.99460937 1.93757813 28 2 C28 2.33 28 2.66 28 3 C18.30429046 3.92972557 8.72657452 4.11237377 -1 4 C-0.67 2.68 -0.34 1.36 0 0 Z " fill="#B0826D" transform="translate(12,42)"/>
<path d="M0 0 C1.32 0.33 2.64 0.66 4 1 C3.34 3.31 2.68 5.62 2 8 C3.7763932 9.0745356 3.7763932 9.0745356 5 9 C5.33 7.35 5.66 5.7 6 4 C6.66 4 7.32 4 8 4 C8 4.99 8 5.98 8 7 C8.66 6.34 9.32 5.68 10 5 C9.67 4.34 9.34 3.68 9 3 C10.32 3.33 11.64 3.66 13 4 C13.33 3.34 13.66 2.68 14 2 C13.34 1.67 12.68 1.34 12 1 C12.99 1 13.98 1 15 1 C15.33 2.32 15.66 3.64 16 5 C14.42825925 6.20280161 12.84212442 7.38681275 11.25 8.5625 C10.36828125 9.22378906 9.4865625 9.88507813 8.578125 10.56640625 C6 12 6 12 3.671875 11.71484375 C3.12015625 11.47894531 2.5684375 11.24304688 2 11 C1.855625 9.9275 1.71125 8.855 1.5625 7.75 C1.16250558 5.08337051 0.72408076 2.58600271 0 0 Z " fill="#838B92" transform="translate(47,70)"/>
<path d="M0 0 C0.66 0.33 1.32 0.66 2 1 C2.92017937 12.33183857 2.92017937 12.33183857 0.6640625 16.421875 C-0.80841926 18.0948355 -2.27655655 19.58944361 -4 21 C-4.144375 20.401875 -4.28875 19.80375 -4.4375 19.1875 C-4.8872439 17.43849596 -5.42892341 15.71322977 -6 14 C-6 13.01 -6 12.02 -6 11 C-4.68 10.67 -3.36 10.34 -2 10 C-1.67 10.66 -1.34 11.32 -1 12 C-0.67 8.04 -0.34 4.08 0 0 Z " fill="#AAB2BA" transform="translate(72,50)"/>
<path d="M0 0 C0.66 0.33 1.32 0.66 2 1 C1.360625 1.2475 0.72125 1.495 0.0625 1.75 C-2.16351592 2.784099 -2.16351592 2.784099 -2.5625 4.875 C-2.706875 5.57625 -2.85125 6.2775 -3 7 C-4.5625 9.25 -4.5625 9.25 -6 11 C-4.865625 11.12375 -3.73125 11.2475 -2.5625 11.375 C-1.386875 11.58125 -0.21125 11.7875 1 12 C1.33 12.66 1.66 13.32 2 14 C-0.64 13.67 -3.28 13.34 -6 13 C-6 13.66 -6 14.32 -6 15 C-6.99 15 -7.98 15 -9 15 C-8.979375 14.236875 -8.95875 13.47375 -8.9375 12.6875 C-8.87057159 9.89814214 -8.87057159 9.89814214 -10 7 C-9.67 6.34 -9.34 5.68 -9 5 C-8.01 5 -7.02 5 -6 5 C-6 4.34 -6 3.68 -6 3 C-5.01 3 -4.02 3 -3 3 C-3 2.34 -3 1.68 -3 1 C-2.01 0.67 -1.02 0.34 0 0 Z " fill="#B8B8B8" transform="translate(88,24)"/>
<path d="M0 0 C0.66 0 1.32 0 2 0 C2.25 6.625 2.25 6.625 0 10 C-0.33 9.34 -0.66 8.68 -1 8 C-1.33 9.98 -1.66 11.96 -2 14 C-4.97 13.505 -4.97 13.505 -8 13 C-7.505 12.54625 -7.01 12.0925 -6.5 11.625 C-4.77390663 10.12364481 -4.77390663 10.12364481 -5 8 C-4.34 8 -3.68 8 -3 8 C-3.99 6.02 -4.98 4.04 -6 2 C-2.25 0.875 -2.25 0.875 0 2 C0 1.34 0 0.68 0 0 Z " fill="#A4ABB6" transform="translate(68,46)"/>
<path d="M0 0 C2.49361571 1.20381448 4.68143083 2.45428722 7 4 C7.1875 7.625 7.1875 7.625 7 11 C6.01 10.67 5.02 10.34 4 10 C4 10.66 4 11.32 4 12 C0.7 11.67 -2.6 11.34 -6 11 C-6 10.67 -6 10.34 -6 10 C-4.02 9.67 -2.04 9.34 0 9 C0.33 7.68 0.66 6.36 1 5 C0.34 4.67 -0.32 4.34 -1 4 C-0.67 2.68 -0.34 1.36 0 0 Z " fill="#6E7780" transform="translate(82,12)"/>
<path d="M0 0 C1.98 0 3.96 0 6 0 C6.33 1.32 6.66 2.64 7 4 C6.01 4.495 6.01 4.495 5 5 C4.67 4.67 4.34 4.34 4 4 C3.01 5.32 2.02 6.64 1 8 C0.67 7.34 0.34 6.68 0 6 C0.33 5.34 0.66 4.68 1 4 C0.34 4 -0.32 4 -1 4 C-1.33 6.31 -1.66 8.62 -2 11 C-3.5625 9.8125 -3.5625 9.8125 -5 8 C-4.6875 5.3125 -4.6875 5.3125 -4 3 C-2.68 2.67 -1.36 2.34 0 2 C0 1.34 0 0.68 0 0 Z " fill="#596065" transform="translate(54,70)"/>
<path d="M0 0 C3.07796445 2.4822294 3.94396277 3.74567717 4.8125 7.6875 C4.874375 8.780625 4.93625 9.87375 5 11 C4 12 4 12 0.9375 12.0625 C-0.031875 12.041875 -1.00125 12.02125 -2 12 C-1.85831863 10.56208484 -1.71148957 9.1246763 -1.5625 7.6875 C-1.48128906 6.88699219 -1.40007813 6.08648437 -1.31640625 5.26171875 C-1 3 -1 3 0 0 Z " fill="#333636" transform="translate(52,52)"/>
<path d="M0 0 C3.40312738 1.05875074 6.01353231 2.00902154 9 4 C8.67 4.99 8.34 5.98 8 7 C8 6.34 8 5.68 8 5 C7.01 5 6.02 5 5 5 C5 6.32 5 7.64 5 9 C4.071875 8.649375 3.14375 8.29875 2.1875 7.9375 C-0.9802953 6.67617372 -0.9802953 6.67617372 -4 8 C-3.67 7.01 -3.34 6.02 -3 5 C-2.01 5 -1.02 5 0 5 C0 3.35 0 1.7 0 0 Z " fill="#B37D5A" transform="translate(71,30)"/>
<path d="M0 0 C0.99 0.33 1.98 0.66 3 1 C4.33568021 0.67619874 5.66923011 0.34342449 7 0 C7.66 0.33 8.32 0.66 9 1 C9.625 3.0625 9.625 3.0625 10 5 C9.01 5.495 9.01 5.495 8 6 C8 5.01 8 4.02 8 3 C7.2575 3.515625 6.515 4.03125 5.75 4.5625 C2.58801584 6.21535536 2.21652689 5.85774051 -1 5 C-2.77190909 6.35444301 -2.77190909 6.35444301 -4 8 C-4.33 6.68 -4.66 5.36 -5 4 C-2.6875 1.9375 -2.6875 1.9375 0 0 Z " fill="#C48056" transform="translate(57,35)"/>
<path d="M0 0 C0.66 0.66 1.32 1.32 2 2 C1.01 3.485 1.01 3.485 0 5 C-0.66 5 -1.32 5 -2 5 C-2.33 6.32 -2.66 7.64 -3 9 C-4.65 8.67 -6.3 8.34 -8 8 C-8 6 -8 6 -7 5 C-7.33 4.01 -7.66 3.02 -8 2 C-5.69 2 -3.38 2 -1 2 C-0.67 1.34 -0.34 0.68 0 0 Z " fill="#4B5051" transform="translate(57,63)"/>
<path d="M0 0 C1.32 0 2.64 0 4 0 C3.84660156 0.52078125 3.69320312 1.0415625 3.53515625 1.578125 C2.86017489 4.63278515 2.65588882 7.63015971 2.4375 10.75 C2.35371094 11.92046875 2.26992187 13.0909375 2.18359375 14.296875 C2.12300781 15.18890625 2.06242187 16.0809375 2 17 C1.34 16.67 0.68 16.34 0 16 C-1.33070829 10.6077386 -1.03352411 5.39729256 0 0 Z " fill="#CED5DA" transform="translate(70,46)"/>
<path d="M0 0 C4.87664009 -0.34833144 7.77050005 0.58314288 12 3 C10.68 4.32 9.36 5.64 8 7 C7.67 6.01 7.34 5.02 7 4 C6.67 4.99 6.34 5.98 6 7 C5.34 7 4.68 7 4 7 C3.67 5.68 3.34 4.36 3 3 C3 4.98 3 6.96 3 9 C2.34 8.67 1.68 8.34 1 8 C0.40644386 5.35139573 0.25790731 2.70802678 0 0 Z " fill="#939799" transform="translate(59,0)"/>
<path d="M0 0 C1.32 0.66 2.64 1.32 4 2 C4 2.99 4 3.98 4 5 C1.25906335 6.8272911 -1.13825324 7.93698178 -4.1875 9.125 C-5.53908203 9.65480469 -5.53908203 9.65480469 -6.91796875 10.1953125 C-7.94857422 10.59363281 -7.94857422 10.59363281 -9 11 C-9 10.34 -9 9.68 -9 9 C-7.35 8.67 -5.7 8.34 -4 8 C-4.33 7.01 -4.66 6.02 -5 5 C-3.68 4.67 -2.36 4.34 -1 4 C-0.67 2.68 -0.34 1.36 0 0 Z " fill="#D9DAD3" transform="translate(83,43)"/>
<path d="M0 0 C3 1 3 1 4.75 3.3125 C6 6 6 6 5.6875 8.3125 C5.460625 8.869375 5.23375 9.42625 5 10 C2.36 10 -0.28 10 -3 10 C-1.92578125 8.27473958 -0.8515625 6.54947917 0.22265625 4.82421875 C1.31112074 2.82866925 1.31112074 2.82866925 0 0 Z " fill="#B4B6B2" transform="translate(90,38)"/>
<path d="M0 0 C0.99 0.66 1.98 1.32 3 2 C-0.75 5 -0.75 5 -3 5 C-3.2475 5.639375 -3.495 6.27875 -3.75 6.9375 C-5 9 -5 9 -7.125 9.75 C-8.053125 9.87375 -8.053125 9.87375 -9 10 C-9.33 11.32 -9.66 12.64 -10 14 C-10.66 14 -11.32 14 -12 14 C-12 13.01 -12 12.02 -12 11 C-11.34 11 -10.68 11 -10 11 C-9.835 10.29875 -9.67 9.5975 -9.5 8.875 C-7.31464835 4.68640933 -3.85328838 2.60769051 0 0 Z " fill="#AEB1B6" transform="translate(68,20)"/>
<path d="M0 0 C0.66 0 1.32 0 2 0 C2 0.99 2 1.98 2 3 C2.99 3 3.98 3 5 3 C4.67 2.01 4.34 1.02 4 0 C7.26954202 0.56371414 8.82575883 1.49962266 11 4 C7.09971775 6.60018816 3.52565431 6.15085514 -1 6 C-1 3 -1 3 0 0 Z " fill="#7D807E" transform="translate(16,94)"/>
<path d="M0 0 C0.33 0.99 0.66 1.98 1 3 C0.34 3 -0.32 3 -1 3 C-1.33 4.32 -1.66 5.64 -2 7 C-2.99 6.67 -3.98 6.34 -5 6 C-4.67 5.01 -4.34 4.02 -4 3 C-5.32 3 -6.64 3 -8 3 C-8 3.66 -8 4.32 -8 5 C-8.66 4.67 -9.32 4.34 -10 4 C-7.16124653 -0.25813021 -4.8137938 -0.13010254 0 0 Z " fill="#3A3D3D" transform="translate(31,85)"/>
<path d="M0 0 C0.33 0.66 0.66 1.32 1 2 C0.67 2.66 0.34 3.32 0 4 C0.99 4.33 1.98 4.66 3 5 C2.34 6.65 1.68 8.3 1 10 C-0.98 10 -2.96 10 -5 10 C-4.34 9.34 -3.68 8.68 -3 8 C-2.835 6.824375 -2.67 5.64875 -2.5 4.4375 C-2.335 3.303125 -2.17 2.16875 -2 1 C-1.34 0.67 -0.68 0.34 0 0 Z " fill="#555C61" transform="translate(81,12)"/>
<path d="M0 0 C-0.99 0.495 -0.99 0.495 -2 1 C-2 1.99 -2 2.98 -2 4 C-2.99 3.67 -3.98 3.34 -5 3 C-5.33 2.34 -5.66 1.68 -6 1 C-7.134375 1.61875 -8.26875 2.2375 -9.4375 2.875 C-10.07558594 3.22304688 -10.71367188 3.57109375 -11.37109375 3.9296875 C-13.16618315 4.91410024 -13.16618315 4.91410024 -14 7 C-14.66 6.34 -15.32 5.68 -16 5 C-10.52529678 -0.86575345 -7.72732998 -1.28788833 0 0 Z " fill="#AFB6BD" transform="translate(84,25)"/>
<path d="M0 0 C1.31625194 2.63250388 0.74813658 3.80179056 0.0625 6.625 C-0.13214844 7.44226562 -0.32679687 8.25953125 -0.52734375 9.1015625 C-0.68332031 9.72804688 -0.83929688 10.35453125 -1 11 C2.465 10.505 2.465 10.505 6 10 C5.67 10.99 5.34 11.98 5 13 C-1.15234375 12.4140625 -1.15234375 12.4140625 -3 12 C-4.57499749 8.85000502 -3.70833498 6.36459118 -3 3 C-1.4375 1.0625 -1.4375 1.0625 0 0 Z " fill="#959EA6" transform="translate(51,53)"/>
<path d="M0 0 C7.26 0 14.52 0 22 0 C19 3 19 3 16.9152832 3.15698242 C16.13499756 3.05748291 15.35471191 2.9579834 14.55078125 2.85546875 C13.27944336 2.70561523 13.27944336 2.70561523 11.98242188 2.55273438 C11.10134766 2.43220703 10.22027344 2.31167969 9.3125 2.1875 C8.41982422 2.07857422 7.52714844 1.96964844 6.60742188 1.85742188 C4.4026759 1.58624991 2.20098487 1.29994714 0 1 C0 0.67 0 0.34 0 0 Z " fill="#D2D3D0" transform="translate(27,45)"/>
<path d="M0 0 C0.33 0.99 0.66 1.98 1 3 C0.01 3.33 -0.98 3.66 -2 4 C-2.33 4.66 -2.66 5.32 -3 6 C-2.34 6 -1.68 6 -1 6 C-0.67 5.34 -0.34 4.68 0 4 C0.66 5.32 1.32 6.64 2 8 C0.35 8 -1.3 8 -3 8 C-3.33 6.68 -3.66 5.36 -4 4 C-6.31 4.33 -8.62 4.66 -11 5 C-11.33 4.34 -11.66 3.68 -12 3 C-10.56274129 2.83126522 -9.12518162 2.66509263 -7.6875 2.5 C-6.88699219 2.4071875 -6.08648437 2.314375 -5.26171875 2.21875 C-3 2 -3 2 0 2 C0 1.34 0 0.68 0 0 Z " fill="#87583A" transform="translate(70,32)"/>
<path d="M0 0 C0.66 0.99 1.32 1.98 2 3 C1.030625 3.4125 0.06125 3.825 -0.9375 4.25 C-4.12260099 5.64899168 -4.12260099 5.64899168 -4.875 8.1875 C-4.91625 8.785625 -4.9575 9.38375 -5 10 C-6.32 9.67 -7.64 9.34 -9 9 C-8.63594751 6.29561004 -8.31857318 5.25593617 -6.15234375 3.515625 C-5.42144531 3.09796875 -4.69054687 2.6803125 -3.9375 2.25 C-3.20402344 1.82203125 -2.47054687 1.3940625 -1.71484375 0.953125 C-1.14894531 0.63859375 -0.58304688 0.3240625 0 0 Z " fill="#96999D" transform="translate(74,22)"/>
<path d="M0 0 C1.65 0.33 3.3 0.66 5 1 C4.8125 2.875 4.8125 2.875 4 5 C1.4375 6.25 1.4375 6.25 -1 7 C-1.66 6.34 -2.32 5.68 -3 5 C-2.01 3.35 -1.02 1.7 0 0 Z " fill="#3D4040" transform="translate(32,76)"/>
<path d="M0 0 C1.33333333 0.66666667 2.66666667 1.33333333 4 2 C5.66619446 2.0396713 7.33391013 2.04384447 9 2 C6.11371599 3.57554035 3.46657616 4.46276373 0.25 5.125 C-0.54921875 5.29257813 -1.3484375 5.46015625 -2.171875 5.6328125 C-2.77515625 5.75398438 -3.3784375 5.87515625 -4 6 C-1.125 1.125 -1.125 1.125 0 0 Z " fill="#5C5F60" transform="translate(28,80)"/>
<path d="M0 0 C0.66 0.33 1.32 0.66 2 1 C0.37982158 2.33918806 -1.24629343 3.6711969 -2.875 5 C-4.23238281 6.11375 -4.23238281 6.11375 -5.6171875 7.25 C-8 9 -8 9 -10 9 C-9.67 7.68 -9.34 6.36 -9 5 C-8.01 5 -7.02 5 -6 5 C-6 4.34 -6 3.68 -6 3 C-5.01 3 -4.02 3 -3 3 C-3 2.34 -3 1.68 -3 1 C-2.01 0.67 -1.02 0.34 0 0 Z " fill="#D4DADE" transform="translate(88,24)"/>
<path d="M0 0 C1.32 1.32 2.64 2.64 4 4 C3.25 6.4375 3.25 6.4375 2 9 C0.68 9.33 -0.64 9.66 -2 10 C-1.34 6.7 -0.68 3.4 0 0 Z " fill="#505355" transform="translate(52,52)"/>
<path d="M0 0 C5.75 -0.125 5.75 -0.125 8 1 C8 1.99 8 2.98 8 4 C6.02 4 4.04 4 2 4 C1.34 2.68 0.68 1.36 0 0 Z " fill="#CC8157" transform="translate(82,37)"/>
<path d="M0 0 C-4.455 3.465 -4.455 3.465 -9 7 C-9.33 6.01 -9.66 5.02 -10 4 C-9.01 3.67 -8.02 3.34 -7 3 C-7 2.34 -7 1.68 -7 1 C-3.375 -1.125 -3.375 -1.125 0 0 Z " fill="#7C7E7D" transform="translate(50,83)"/>
<path d="M0 0 C-2 3 -2 3 -4.875 3.8125 C-8.07588583 4.00455315 -9.36609075 3.72217143 -12 2 C-7.82262526 0.40861915 -4.46839215 -0.21278058 0 0 Z " fill="#383B3B" transform="translate(43,82)"/>
<path d="M0 0 C0.86625 0.3403125 0.86625 0.3403125 1.75 0.6875 C1.75 1.6775 1.75 2.6675 1.75 3.6875 C-1.125 4.3125 -1.125 4.3125 -4.25 4.6875 C-4.91 4.0275 -5.57 3.3675 -6.25 2.6875 C-2.80384615 -0.38942308 -2.80384615 -0.38942308 0 0 Z " fill="#696C6C" transform="translate(47.25,64.3125)"/>
<path d="M0 0 C2 1 4 2 6 3 C6 3.66 6 4.32 6 5 C4.35 5 2.7 5 1 5 C0.67 5.66 0.34 6.32 0 7 C0 6.34 0 5.68 0 5 C-0.99 5 -1.98 5 -3 5 C-3 4.34 -3 3.68 -3 3 C-2.01 3 -1.02 3 0 3 C0 2.01 0 1.02 0 0 Z " fill="#7C4E39" transform="translate(52,40)"/>
<path d="M0 0 C0 0.66 0 1.32 0 2 C1.32 2 2.64 2 4 2 C4 2.66 4 3.32 4 4 C0.33694766 4.74926071 -2.42355152 5.2380014 -6 4 C-2.25 0 -2.25 0 0 0 Z " fill="#7C7F7E" transform="translate(41,68)"/>
<path d="M0 0 C0.99 0 1.98 0 3 0 C3.125 2.875 3.125 2.875 3 6 C2.34 6.66 1.68 7.32 1 8 C-1 5 -1 5 -0.625 2.3125 C-0.41875 1.549375 -0.2125 0.78625 0 0 Z " fill="#383D40" transform="translate(50,73)"/>
<path d="M0 0 C1.2065625 0.0309375 1.2065625 0.0309375 2.4375 0.0625 C2.03946439 2.94825819 1.64740931 3.88439513 -0.625 5.8125 C-1.264375 6.225 -1.90375 6.6375 -2.5625 7.0625 C-2.94383299 5.0710944 -3.27575582 3.06970923 -3.5625 1.0625 C-2.5625 0.0625 -2.5625 0.0625 0 0 Z " fill="#949CA4" transform="translate(69.5625,63.9375)"/>
<path d="M0 0 C2.88437779 1.29299694 4.87219421 2.65941363 7 5 C4.16032769 5 1.76264289 4.59732819 -1 4 C-0.67 2.68 -0.34 1.36 0 0 Z " fill="#939A9F" transform="translate(82,12)"/>
<path d="M0 0 C2.64 0 5.28 0 8 0 C8 0.66 8 1.32 8 2 C6.35 2 4.7 2 3 2 C3 3.32 3 4.64 3 6 C2.34 6 1.68 6 1 6 C0.67 4.02 0.34 2.04 0 0 Z " fill="#867976" transform="translate(60,46)"/>
<path d="M0 0 C1.32 0.66 2.64 1.32 4 2 C3.67 2.99 3.34 3.98 3 5 C3 4.34 3 3.68 3 3 C2.01 3 1.02 3 0 3 C0 4.32 0 5.64 0 7 C-1.65 6.67 -3.3 6.34 -5 6 C-4.360625 5.38125 -3.72125 4.7625 -3.0625 4.125 C-0.96116416 2.17402388 -0.96116416 2.17402388 0 0 Z " fill="#D19064" transform="translate(76,32)"/>
<path d="M0 0 C0.66 0 1.32 0 2 0 C2 0.99 2 1.98 2 3 C2.66 3 3.32 3 4 3 C4 3.99 4 4.98 4 6 C2.35 6 0.7 6 -1 6 C-1 3 -1 3 0 0 Z " fill="#646663" transform="translate(16,94)"/>
<path d="M0 0 C0.66 0 1.32 0 2 0 C2.25 6.625 2.25 6.625 0 10 C0 9.01 0 8.02 0 7 C-0.66 6.67 -1.32 6.34 -2 6 C-2 4 -2 4 0 2 C0 1.34 0 0.68 0 0 Z " fill="#B1B9C3" transform="translate(68,46)"/>
<path d="M0 0 C0.66 0 1.32 0 2 0 C2.33 0.66 2.66 1.32 3 2 C4.65 1.67 6.3 1.34 8 1 C8 1.99 8 2.98 8 4 C5.39417629 4.93065133 4.35801776 5.14917407 1.75 4.0625 C1.1725 3.711875 0.595 3.36125 0 3 C0 2.01 0 1.02 0 0 Z " fill="#AC7D5D" transform="translate(62,30)"/>
<path d="M0 0 C0.66 0 1.32 0 2 0 C2.66 1.98 3.32 3.96 4 6 C4.66 6 5.32 6 6 6 C5.67 6.66 5.34 7.32 5 8 C0.125 4.375 0.125 4.375 -1 1 C-0.67 0.67 -0.34 0.34 0 0 Z " fill="#757B7E" transform="translate(66,14)"/>
<path d="M0 0 C2.475 0.99 2.475 0.99 5 2 C4.67 3.32 4.34 4.64 4 6 C3.01 5.67 2.02 5.34 1 5 C1 4.34 1 3.68 1 3 C0.01 3.33 -0.98 3.66 -2 4 C-2 3.34 -2 2.68 -2 2 C-1.34 2 -0.68 2 0 2 C0 1.34 0 0.68 0 0 Z " fill="#353B3F" transform="translate(67,11)"/>
<path d="M0 0 C2.475 0.495 2.475 0.495 5 1 C5 1.99 5 2.98 5 4 C4.34 4 3.68 4 3 4 C2.67 4.66 2.34 5.32 2 6 C0 3 0 3 0 0 Z " fill="#83888A" transform="translate(62,9)"/>
<path d="M0 0 C0.33 0.99 0.66 1.98 1 3 C0.34 3 -0.32 3 -1 3 C-1.33 4.65 -1.66 6.3 -2 8 C-2.66 8 -3.32 8 -4 8 C-4.33 6.35 -4.66 4.7 -5 3 C-3.35 2.67 -1.7 2.34 0 2 C0 1.34 0 0.68 0 0 Z " fill="#86929D" transform="translate(65,61)"/>
<path d="M0 0 C2.83967231 0 5.23735711 0.40267181 8 1 C7.67 1.66 7.34 2.32 7 3 C3.7 3 0.4 3 -3 3 C-2.01 2.67 -1.02 2.34 0 2 C0 1.34 0 0.68 0 0 Z " fill="#73462C" transform="translate(61,43)"/>
<path d="M0 0 C0.99 0.66 1.98 1.32 3 2 C2.34 3.32 1.68 4.64 1 6 C-0.32 5.34 -1.64 4.68 -3 4 C-2.67 3.34 -2.34 2.68 -2 2 C-1.34 2 -0.68 2 0 2 C0 1.34 0 0.68 0 0 Z " fill="#B5BBC0" transform="translate(76,27)"/>
<path d="M0 0 C0.66 0.66 1.32 1.32 2 2 C1.01 3.485 1.01 3.485 0 5 C-0.66 5 -1.32 5 -2 5 C-2.33 6.32 -2.66 7.64 -3 9 C-3.99 8.67 -4.98 8.34 -6 8 C-5.34 8 -4.68 8 -4 8 C-3.71125 7.236875 -3.4225 6.47375 -3.125 5.6875 C-2 3 -2 3 0 0 Z " fill="#2D3134" transform="translate(57,63)"/>
<path d="M0 0 C1.32 0 2.64 0 4 0 C4 1.65 4 3.3 4 5 C3.01 5.33 2.02 5.66 1 6 C1 5.01 1 4.02 1 3 C0.34 2.67 -0.32 2.34 -1 2 C-0.67 1.34 -0.34 0.68 0 0 Z " fill="#6A6E6F" transform="translate(30,89)"/>
<path d="M0 0 C2.97 0.495 2.97 0.495 6 1 C4.35 2.32 2.7 3.64 1 5 C0.34 4.34 -0.32 3.68 -1 3 C-0.34 3 0.32 3 1 3 C0.67 2.01 0.34 1.02 0 0 Z " fill="#4F5455" transform="translate(31,85)"/>
<path d="M0 0 C0.99 0 1.98 0 3 0 C3 1.98 3 3.96 3 6 C0.03 5.505 0.03 5.505 -3 5 C-2.505 4.54625 -2.01 4.0925 -1.5 3.625 C0.22609337 2.12364481 0.22609337 2.12364481 0 0 Z " fill="#ABB5BF" transform="translate(63,54)"/>
<path d="M0 0 C0.33 0.99 0.66 1.98 1 3 C-0.65 4.32 -2.3 5.64 -4 7 C-4.66 6.67 -5.32 6.34 -6 6 C-4 4 -2 2 0 0 Z " fill="#464C52" transform="translate(69,22)"/>
</svg>
