<?xml version="1.0" encoding="UTF-8" standalone="no"?>
<!-- Generator: Adobe Illustrator 26.3.1, SVG Export Plug-In . SVG Version: 6.00 Build 0)  -->

<svg
   version="1.1"
   id="Layer_1"
   x="0px"
   y="0px"
   viewBox="0 0 300 300"
   xml:space="preserve"
   sodipodi:docname="lindylabs.svg"
   width="300"
   height="300"
   inkscape:version="1.2.2 (b0a8486541, 2022-12-01)"
   xmlns:inkscape="http://www.inkscape.org/namespaces/inkscape"
   xmlns:sodipodi="http://sodipodi.sourceforge.net/DTD/sodipodi-0.dtd"
   xmlns:xlink="http://www.w3.org/1999/xlink"
   xmlns="http://www.w3.org/2000/svg"
   xmlns:svg="http://www.w3.org/2000/svg"><defs
   id="defs55">
	<defs
   id="defs7">
		<rect
   id="SVGID_1_"
   x="154.77"
   y="288.48001"
   width="890.35999"
   height="223" />
	</defs>
	
	

		
		
		
		
		
		
		
		
		
		
		
		
		
		
		
		
		
		
	<clipPath
   clipPathUnits="userSpaceOnUse"
   id="clipPath260"><g
     id="g264"><use
       xlink:href="#SVGID_1_"
       style="overflow:visible"
       id="use262" /></g></clipPath><clipPath
   clipPathUnits="userSpaceOnUse"
   id="clipPath266"><g
     id="g270"><use
       xlink:href="#SVGID_1_"
       style="overflow:visible"
       id="use268" /></g></clipPath><clipPath
   clipPathUnits="userSpaceOnUse"
   id="clipPath272"><g
     id="g276"><use
       xlink:href="#SVGID_1_"
       style="overflow:visible"
       id="use274" /></g></clipPath><clipPath
   clipPathUnits="userSpaceOnUse"
   id="clipPath278"><g
     id="g282"><use
       xlink:href="#SVGID_1_"
       style="overflow:visible"
       id="use280" /></g></clipPath><clipPath
   clipPathUnits="userSpaceOnUse"
   id="clipPath284"><g
     id="g288"><use
       xlink:href="#SVGID_1_"
       style="overflow:visible"
       id="use286" /></g></clipPath><clipPath
   clipPathUnits="userSpaceOnUse"
   id="clipPath290"><g
     id="g294"><use
       xlink:href="#SVGID_1_"
       style="overflow:visible"
       id="use292" /></g></clipPath><clipPath
   clipPathUnits="userSpaceOnUse"
   id="clipPath296"><g
     id="g300"><use
       xlink:href="#SVGID_1_"
       style="overflow:visible"
       id="use298" /></g></clipPath><clipPath
   clipPathUnits="userSpaceOnUse"
   id="clipPath302"><g
     id="g306"><use
       xlink:href="#SVGID_1_"
       style="overflow:visible"
       id="use304" /></g></clipPath><clipPath
   clipPathUnits="userSpaceOnUse"
   id="clipPath308"><g
     id="g312"><use
       xlink:href="#SVGID_1_"
       style="overflow:visible"
       id="use310" /></g></clipPath><clipPath
   clipPathUnits="userSpaceOnUse"
   id="clipPath314"><g
     id="g318"><use
       xlink:href="#SVGID_1_"
       style="overflow:visible"
       id="use316" /></g></clipPath></defs><sodipodi:namedview
   id="namedview53"
   pagecolor="#ffffff"
   bordercolor="#666666"
   borderopacity="1.0"
   inkscape:showpageshadow="2"
   inkscape:pageopacity="0.0"
   inkscape:pagecheckerboard="0"
   inkscape:deskcolor="#d1d1d1"
   showgrid="false"
   showguides="true"
   inkscape:zoom="1.3194862"
   inkscape:cx="294.05384"
   inkscape:cy="149.30053"
   inkscape:window-width="1366"
   inkscape:window-height="691"
   inkscape:window-x="0"
   inkscape:window-y="0"
   inkscape:window-maximized="1"
   inkscape:current-layer="Layer_1"><sodipodi:guide
     position="150,-365.14602"
     orientation="-1,0"
     id="guide378"
     inkscape:locked="false"
     inkscape:label=""
     inkscape:color="rgb(0,134,229)" /><sodipodi:guide
     position="681.19835,150"
     orientation="0,1"
     id="guide380"
     inkscape:locked="false"
     inkscape:label=""
     inkscape:color="rgb(0,134,229)" /></sodipodi:namedview>
<style
   type="text/css"
   id="style2">
	.st0{clip-path:url(#SVGID_00000005958471237230547590000012913732206243294093_);}
	.st1{fill:#4C96D1;}
	.st2{fill:#4264AF;}
	.st3{fill:#4558A7;}
	.st4{fill:#F57F20;}
	.st5{fill:#EDF3FB;}
</style>
<path
   id="path1422"
   style="stroke-width:0.306186"
   d="M 0,0 H 300 V 300 H 0 Z" />

		
	
<path
   class="st1"
   d="m 199.89,415.05 -45.12,-30.33 v -35.89 l 45.12,30.27 z"
   id="path1398"
   clip-path="none"
   transform="matrix(1.1087458,0,0,1.1210763,-146.60059,-298.4081)" /><g
   id="g366"
   transform="matrix(1.1087458,0,0,1.1210763,-146.60059,-298.4081)" /><path
   class="st1"
   d="m 290.07,511.48 -90.18,-60.54 v -35.89 l 90.18,60.54 z"
   id="path1401"
   clip-path="none"
   transform="matrix(1.1087458,0,0,1.1210763,-146.60059,-298.4081)" /><g
   id="g360"
   transform="matrix(1.1087458,0,0,1.1210763,-146.60059,-298.4081)" /><path
   class="st2"
   d="m 199.89,415.05 45.06,-30.33 v -35.89 l -45.06,30.27 z"
   id="path1404"
   clip-path="none"
   transform="matrix(1.1087458,0,0,1.1210763,-146.60059,-298.4081)" /><g
   id="g354"
   transform="matrix(1.1087458,0,0,1.1210763,-146.60059,-298.4081)" /><path
   class="st3"
   d="m 290.07,415.05 -45.12,-30.33 v -35.89 l 45.12,30.27 z"
   id="path1407"
   clip-path="none"
   transform="matrix(1.1087458,0,0,1.1210763,-146.60059,-298.4081)" /><g
   id="g348"
   transform="matrix(1.1087458,0,0,1.1210763,-146.60059,-298.4081)" /><path
   class="st4"
   d="m 290.07,415.05 45.12,-30.33 v -35.89 l -45.12,30.27 z"
   id="path1410"
   clip-path="none"
   transform="matrix(1.1087458,0,0,1.1210763,-146.60059,-298.4081)" /><g
   id="g342"
   transform="matrix(1.1087458,0,0,1.1210763,-146.60059,-298.4081)" /><path
   class="st4"
   d="m 290.07,511.48 90.18,-60.54 v -35.89 l -90.18,60.54 z"
   id="path1413"
   clip-path="none"
   transform="matrix(1.1087458,0,0,1.1210763,-146.60059,-298.4081)" /><g
   id="g336"
   transform="matrix(1.1087458,0,0,1.1210763,-146.60059,-298.4081)" /><path
   class="st5"
   d="m 244.59,288.54 -89.82,60.3 45.12,30.27 45.06,-30.27 45.12,30.27 45.12,-30.27 -89.94,-60.36 z"
   id="path1416"
   clip-path="none"
   transform="matrix(1.1087458,0,0,1.1210763,-146.60059,-298.4081)" /><g
   id="g330"
   transform="matrix(1.1087458,0,0,1.1210763,-146.60059,-298.4081)" /><path
   class="st5"
   d="m 290.07,475.59 90.18,-60.54 -45.06,-30.33 -45.12,30.33 -45.12,-30.33 -45.06,30.33 z"
   id="path1419"
   clip-path="none"
   transform="matrix(1.1087458,0,0,1.1210763,-146.60059,-298.4081)" /><g
   id="g324"
   transform="matrix(1.1087458,0,0,1.1210763,-146.60059,-298.4081)" /></svg>
