<?xml version="1.0" standalone="no"?>
<!DOCTYPE svg PUBLIC "-//W3C//DTD SVG 20010904//EN"
 "http://www.w3.org/TR/2001/REC-SVG-20010904/DTD/svg10.dtd">
<svg version="1.0" xmlns="http://www.w3.org/2000/svg"
 width="200.000000pt" height="200.000000pt" viewBox="0 0 200.000000 200.000000"
 preserveAspectRatio="xMidYMid meet">

<g transform="translate(0.000000,200.000000) scale(0.100000,-0.100000)"
fill="#000000" stroke="none">
<path d="M110 1105 l0 -85 80 0 80 0 0 85 0 85 -80 0 -80 0 0 -85z"/>
<path d="M688 1159 c-10 -5 -18 -21 -18 -34 0 -18 8 -26 35 -35 37 -12 46 -36
19 -47 -9 -3 -25 -1 -35 5 -11 7 -20 8 -24 2 -11 -18 42 -35 71 -22 35 17 29
52 -13 72 -18 8 -33 21 -33 28 0 18 28 26 44 13 9 -8 16 -8 20 -2 4 6 -2 15
-13 20 -24 13 -31 13 -53 0z"/>
<path d="M1007 1159 c-44 -26 -39 -123 8 -135 25 -6 65 10 65 26 0 13 -17 13
-25 0 -3 -5 -15 -10 -26 -10 -24 0 -42 41 -33 75 7 27 40 43 57 26 6 -6 16
-11 22 -11 5 1 -1 10 -14 20 -27 23 -29 23 -54 9z"/>
<path d="M383 1151 l38 -6 -40 -54 c-22 -30 -38 -58 -35 -62 7 -12 91 -11 99
0 3 6 -13 11 -35 13 l-40 3 35 49 c19 27 35 53 35 58 0 4 -21 7 -47 7 l-48 -2
38 -6z"/>
<path d="M510 1089 c0 -44 4 -68 10 -64 6 3 10 17 10 30 0 38 17 38 40 0 12
-19 26 -35 31 -35 14 0 11 8 -16 48 l-25 36 27 28 c18 19 22 28 12 28 -8 0
-26 -14 -41 -32 l-27 -33 -1 33 c0 17 -4 32 -10 32 -6 0 -10 -30 -10 -71z"/>
<path d="M830 1090 l0 -70 40 0 c22 0 40 5 40 10 0 6 -13 10 -30 10 -25 0 -30
4 -30 24 0 20 6 25 33 29 l32 4 -32 1 c-28 2 -33 6 -33 26 0 20 6 25 33 29 28
3 26 4 -10 5 l-43 2 0 -70z"/>
<path d="M1142 1099 c5 -63 15 -79 54 -79 34 0 44 20 43 85 l-2 60 -6 -50 c-8
-59 -16 -75 -41 -75 -22 0 -30 19 -30 76 0 26 -5 44 -11 44 -8 0 -10 -20 -7
-61z"/>
<path d="M1320 1090 c0 -49 3 -69 11 -64 6 3 9 17 6 30 -7 36 24 30 47 -9 20
-34 35 -22 16 13 -9 16 -8 25 0 35 6 8 10 24 8 37 -2 19 -10 23 -45 26 l-43 3
0 -71z m68 33 c3 -19 -1 -23 -21 -23 -24 0 -43 30 -29 45 14 14 47 -1 50 -22z"/>
<path d="M1488 1148 c14 -14 16 -108 2 -108 -5 0 -10 -4 -10 -10 0 -5 11 -10
25 -10 14 0 25 5 25 10 0 6 -4 10 -10 10 -14 0 -12 94 2 108 9 9 6 12 -17 12
-23 0 -26 -3 -17 -12z"/>
<path d="M1608 1153 c20 -4 22 -10 22 -69 0 -36 4 -64 10 -64 6 0 10 28 10 64
0 59 2 65 23 69 12 2 -3 4 -33 4 -30 0 -45 -2 -32 -4z"/>
<path d="M1764 1116 c14 -25 27 -57 27 -73 1 -26 2 -25 9 7 4 19 17 52 29 73
27 44 12 51 -16 7 l-19 -30 -17 30 c-10 17 -23 30 -29 30 -5 0 2 -20 16 -44z"/>
</g>
</svg>
