<svg version="1.1" id="Layer_1" xmlns="http://www.w3.org/2000/svg" xmlns:xlink="http://www.w3.org/1999/xlink" x="0px" y="0px"
	 width="100%" viewBox="0 0 272 272" enable-background="new 0 0 272 272" xml:space="preserve">
<path fill="#000000" opacity="1.000000" stroke="none" 
	d="
M90.183334,161.737061 
	C89.420753,164.643295 87.371979,164.281708 85.606895,164.284515 
	C69.956161,164.309341 54.304901,164.225739 38.654903,164.333740 
	C35.169987,164.357788 33.893780,162.921509 33.906841,159.600174 
	C33.967747,144.116272 33.994213,128.631866 33.923573,113.148148 
	C33.907558,109.638756 35.467918,108.593185 38.799301,108.616295 
	C54.282829,108.723709 69.768890,108.769264 85.250931,108.580635 
	C89.258408,108.531815 90.401672,109.983582 90.360535,113.814156 
	C90.190704,129.629410 90.262871,145.447266 90.183334,161.737061 
z"/>
<path fill="#000000" opacity="1.000000" stroke="none" 
	d="
M182.909149,130.919098 
	C185.825089,127.479446 188.748566,124.468086 191.091660,121.057930 
	C193.775406,117.151939 197.062256,117.096245 201.750885,118.426102 
	C197.128159,123.895721 193.044846,129.071655 188.572891,133.886642 
	C185.970612,136.688568 186.248917,138.827454 188.335632,141.708435 
	C193.367004,148.654892 198.130829,155.795120 203.311234,163.304688 
	C198.765289,164.937622 195.666962,164.731110 193.228409,160.978485 
	C189.264282,154.878204 185.131241,148.887680 180.909286,142.612686 
	C176.594604,146.047180 173.638565,149.497375 174.302734,155.021072 
	C174.558792,157.150665 174.311768,159.343414 174.260025,161.506561 
	C174.216293,163.333923 173.248810,164.192184 171.417542,164.207855 
	C169.723984,164.222366 168.449387,163.683929 168.127747,161.877213 
	C167.953934,160.900955 167.911423,159.890945 167.909698,158.895981 
	C167.888947,146.908310 167.866455,134.920532 167.896942,122.932915 
	C167.903198,120.473938 167.521759,117.610840 171.433304,117.730255 
	C175.256134,117.846970 174.250458,120.788002 174.298340,122.884666 
	C174.423492,128.366028 174.340500,133.852127 174.340500,140.812073 
	C177.666977,136.957382 180.163620,134.064285 182.909149,130.919098 
z"/>
<path fill="#000000" opacity="1.000000" stroke="none" 
	d="
M227.377960,129.067627 
	C227.708252,134.766830 232.184982,135.281219 235.847824,136.462219 
	C238.983932,137.473389 242.294464,137.829971 245.344833,139.300507 
	C250.323456,141.700638 252.304108,145.748779 252.259583,150.980560 
	C252.213699,156.372330 250.188217,160.735016 245.038177,163.068359 
	C237.574982,166.449799 224.426651,165.540207 219.611816,156.526672 
	C221.497498,153.173035 223.442673,151.609772 226.993729,155.256134 
	C230.522522,158.879623 235.087814,159.650452 239.923920,158.376511 
	C243.614288,157.404388 245.458786,154.726364 245.574692,151.061676 
	C245.685013,147.573471 243.422363,145.586441 240.341827,144.599991 
	C237.341965,143.639343 234.253311,142.959030 231.215363,142.113586 
	C224.057816,140.121643 220.434753,135.365982 220.708740,128.369217 
	C220.955475,122.068520 224.882385,117.912544 232.301941,116.894753 
	C238.521423,116.041573 244.632645,116.506134 249.547195,121.241623 
	C250.901398,122.546494 252.394760,123.932800 250.630051,125.858688 
	C248.985489,127.653465 247.318176,128.156876 245.141342,126.130203 
	C241.681458,122.908981 237.567490,121.462189 232.750900,122.942520 
	C229.806412,123.847481 227.668030,125.368904 227.377960,129.067627 
z"/>
<path fill="#000000" opacity="1.000000" stroke="none" 
	d="
M146.679535,119.043579 
	C147.740326,122.471031 145.735260,124.540710 144.216995,126.630089 
	C137.567734,135.780640 130.791306,144.838715 124.071190,153.937866 
	C123.289207,154.996689 122.570358,156.102158 121.593346,157.517593 
	C123.815186,158.522171 125.870049,158.230042 127.933090,158.209000 
	C133.589630,158.151230 139.248688,158.161758 144.904129,158.275085 
	C146.770447,158.312454 148.059372,159.280960 147.927002,161.429337 
	C147.816711,163.219315 146.856155,164.225800 145.083740,164.229492 
	C135.429092,164.249603 125.755714,164.571320 116.127998,164.056198 
	C111.751152,163.822021 112.894920,159.890030 114.230949,157.546356 
	C116.444855,153.662689 119.289040,150.133347 121.925255,146.496445 
	C127.272812,139.119019 132.658859,131.769470 138.845886,123.288712 
	C131.549545,123.288712 125.492287,123.324280 119.435959,123.264656 
	C117.845535,123.249001 115.863098,123.677185 115.118736,121.653938 
	C114.512596,120.006378 114.491013,117.837769 116.807327,117.866920 
	C126.705887,117.991501 136.657623,116.470589 146.679535,119.043579 
z"/>
</svg>